<svg xmlns="http://www.w3.org/2000/svg" xmlns:xlink="http://www.w3.org/1999/xlink" width="500" zoomAndPan="magnify" viewBox="0 0 375 374.999991" height="500" preserveAspectRatio="xMidYMid meet" version="1.0"><defs><g/><clipPath id="420b7e7b9e"><path d="M 129 195 L 247 195 L 247 238.574219 L 129 238.574219 Z M 129 195 " clip-rule="nonzero"/></clipPath><clipPath id="b5f383acc0"><path d="M 129 66.824219 L 247 66.824219 L 247 158 L 129 158 Z M 129 66.824219 " clip-rule="nonzero"/></clipPath><clipPath id="70fb911295"><path d="M 210 110 L 211 110 L 211 111 L 210 111 Z M 210 110 " clip-rule="nonzero"/></clipPath><clipPath id="1289fe1751"><path d="M 144.859375 81.304688 L 233.292969 84.664062 L 229.933594 173.101562 L 141.496094 169.738281 Z M 144.859375 81.304688 " clip-rule="nonzero"/></clipPath><clipPath id="774d702737"><path d="M 144.859375 81.304688 L 233.292969 84.664062 L 229.933594 173.101562 L 141.496094 169.738281 Z M 144.859375 81.304688 " clip-rule="nonzero"/></clipPath><clipPath id="f9f0959dff"><path d="M 144.859375 81.304688 L 233.292969 84.664062 L 229.933594 173.101562 L 141.496094 169.738281 Z M 144.859375 81.304688 " clip-rule="nonzero"/></clipPath><clipPath id="c227d004a1"><path d="M 165 106 L 231 106 L 231 171 L 165 171 Z M 165 106 " clip-rule="nonzero"/></clipPath><clipPath id="93a0aa632d"><path d="M 144.859375 81.304688 L 233.292969 84.664062 L 229.933594 173.101562 L 141.496094 169.738281 Z M 144.859375 81.304688 " clip-rule="nonzero"/></clipPath><clipPath id="82f9ef1b4d"><path d="M 144.859375 81.304688 L 233.292969 84.664062 L 229.933594 173.101562 L 141.496094 169.738281 Z M 144.859375 81.304688 " clip-rule="nonzero"/></clipPath><clipPath id="85dd072b4a"><path d="M 144.859375 81.304688 L 233.292969 84.664062 L 229.933594 173.101562 L 141.496094 169.738281 Z M 144.859375 81.304688 " clip-rule="nonzero"/></clipPath><clipPath id="0804e6f21f"><path d="M 143 83 L 209 83 L 209 148 L 143 148 Z M 143 83 " clip-rule="nonzero"/></clipPath><clipPath id="cc91da2b9b"><path d="M 144.859375 81.304688 L 233.292969 84.664062 L 229.933594 173.101562 L 141.496094 169.738281 Z M 144.859375 81.304688 " clip-rule="nonzero"/></clipPath><clipPath id="9d32615310"><path d="M 144.859375 81.304688 L 233.292969 84.664062 L 229.933594 173.101562 L 141.496094 169.738281 Z M 144.859375 81.304688 " clip-rule="nonzero"/></clipPath><clipPath id="94ed54e435"><path d="M 144.859375 81.304688 L 233.292969 84.664062 L 229.933594 173.101562 L 141.496094 169.738281 Z M 144.859375 81.304688 " clip-rule="nonzero"/></clipPath></defs><path fill="#35668f" d="M 168.042969 101.765625 L 211.859375 101.765625 L 211.859375 97.859375 L 168.042969 97.859375 L 168.042969 101.765625 " fill-opacity="1" fill-rule="nonzero"/><path fill="#35668f" d="M 211.859375 118.941406 L 168.042969 118.941406 L 168.042969 122.847656 L 211.859375 122.847656 L 211.859375 118.941406 " fill-opacity="1" fill-rule="nonzero"/><path fill="#35668f" d="M 211.859375 140.035156 L 168.042969 140.035156 L 168.042969 143.9375 L 211.859375 143.9375 L 211.859375 140.035156 " fill-opacity="1" fill-rule="nonzero"/><path fill="#35668f" d="M 211.859375 161.113281 L 168.042969 161.113281 L 168.042969 165.019531 L 211.859375 165.019531 L 211.859375 161.113281 " fill-opacity="1" fill-rule="nonzero"/><path fill="#35668f" d="M 211.859375 182.207031 L 168.042969 182.207031 L 168.042969 186.113281 L 211.859375 186.113281 L 211.859375 182.207031 " fill-opacity="1" fill-rule="nonzero"/><path fill="#35668f" d="M 211.859375 203.285156 L 168.042969 203.285156 L 168.042969 207.191406 L 211.859375 207.191406 L 211.859375 203.285156 " fill-opacity="1" fill-rule="nonzero"/><path fill="#071d3a" d="M 129.4375 112.148438 C 131.710938 112.246094 133.917969 112.476562 135.945312 112.871094 L 135.945312 98.445312 C 134.175781 97.996094 131.996094 97.644531 129.4375 97.535156 L 129.4375 112.148438 " fill-opacity="1" fill-rule="nonzero"/><path fill="#071d3a" d="M 129.4375 141.855469 C 131.710938 141.953125 133.917969 142.183594 135.945312 142.578125 L 135.945312 128.152344 C 134.175781 127.703125 131.996094 127.351562 129.4375 127.226562 L 129.4375 141.855469 " fill-opacity="1" fill-rule="nonzero"/><path fill="#071d3a" d="M 129.4375 201.273438 C 131.710938 201.351562 133.917969 201.597656 135.945312 201.992188 L 135.945312 187.554688 C 134.175781 187.105469 131.996094 186.75 129.4375 186.644531 L 129.4375 201.273438 " fill-opacity="1" fill-rule="nonzero"/><path fill="#071d3a" d="M 129.4375 171.566406 C 131.710938 171.644531 133.917969 171.890625 135.945312 172.285156 L 135.945312 157.859375 C 134.175781 157.410156 131.996094 157.042969 129.4375 156.933594 L 129.4375 171.566406 " fill-opacity="1" fill-rule="nonzero"/><g clip-path="url(#420b7e7b9e)"><path fill="#071d3a" d="M 240.074219 231.878906 L 135.945312 231.878906 L 135.945312 217.261719 C 134.175781 216.8125 131.996094 216.457031 129.4375 216.351562 L 129.4375 238.382812 L 246.597656 238.382812 L 246.597656 195.625 C 244.296875 197.570312 242.117188 199.351562 240.074219 200.945312 L 240.074219 231.878906 " fill-opacity="1" fill-rule="nonzero"/></g><g clip-path="url(#b5f383acc0)"><path fill="#071d3a" d="M 246.597656 66.671875 L 129.4375 66.671875 L 129.4375 82.457031 C 131.710938 82.539062 133.917969 82.78125 135.945312 83.175781 L 135.945312 73.175781 L 240.074219 73.175781 L 240.074219 157.941406 C 242.117188 155.859375 244.296875 153.738281 246.597656 151.613281 L 246.597656 66.671875 " fill-opacity="1" fill-rule="nonzero"/></g><path fill="#071d3a" d="M 112.769531 92.664062 C 112.769531 89.179688 131.574219 85.667969 140.671875 90.878906 L 140.671875 93.859375 C 132.84375 90.609375 119.457031 90.949219 112.769531 94.664062 Z M 140.671875 98.160156 L 140.671875 102.121094 L 150.433594 102.121094 L 150.433594 84.117188 L 140.671875 84.117188 L 140.671875 86.566406 C 129.875 82.101562 108.875 84.511719 108.875 92.664062 L 108.875 99.941406 L 112.769531 99.941406 C 112.769531 96.023438 132.160156 93.289062 140.671875 98.160156 " fill-opacity="1" fill-rule="nonzero"/><path fill="#071d3a" d="M 112.769531 122.355469 C 112.769531 118.886719 131.574219 115.375 140.671875 120.585938 L 140.671875 123.554688 C 132.84375 120.316406 119.457031 120.65625 112.769531 124.355469 Z M 140.671875 127.867188 L 140.671875 131.8125 L 150.433594 131.8125 L 150.433594 113.824219 L 140.671875 113.824219 L 140.671875 116.273438 C 129.875 111.796875 108.875 114.21875 108.875 122.355469 L 108.875 129.636719 L 112.769531 129.636719 C 112.769531 125.746094 132.160156 122.996094 140.671875 127.867188 " fill-opacity="1" fill-rule="nonzero"/><path fill="#071d3a" d="M 112.769531 152.0625 C 112.769531 148.566406 131.644531 145.125 140.671875 150.28125 L 140.671875 153.261719 C 132.910156 150.050781 119.511719 150.335938 112.769531 154.0625 Z M 140.671875 157.574219 L 140.671875 161.519531 L 150.433594 161.519531 L 150.433594 143.53125 L 140.671875 143.53125 L 140.671875 145.980469 C 129.886719 141.515625 108.875 143.910156 108.875 152.0625 L 108.875 159.34375 L 112.769531 159.34375 C 112.769531 155.453125 132.160156 152.703125 140.671875 157.574219 " fill-opacity="1" fill-rule="nonzero"/><path fill="#071d3a" d="M 112.769531 181.769531 C 112.769531 178.136719 131.875 174.964844 140.671875 179.988281 L 140.671875 182.96875 C 132.84375 179.730469 119.457031 180.054688 112.769531 183.769531 Z M 140.671875 187.269531 L 140.671875 191.230469 L 150.433594 191.230469 L 150.433594 173.238281 L 140.671875 173.238281 L 140.671875 175.6875 C 129.902344 171.210938 108.875 173.605469 108.875 181.769531 L 108.875 189.050781 L 112.769531 189.050781 C 112.769531 185.144531 132.160156 182.410156 140.671875 187.269531 " fill-opacity="1" fill-rule="nonzero"/><path fill="#071d3a" d="M 112.769531 213.480469 L 112.769531 211.464844 C 112.769531 207.574219 132.160156 204.824219 140.671875 209.695312 L 140.671875 212.675781 C 132.828125 209.421875 119.441406 209.761719 112.769531 213.480469 Z M 140.671875 216.976562 L 140.671875 220.9375 L 150.433594 220.9375 L 150.433594 202.933594 L 140.671875 202.933594 L 140.671875 205.382812 C 129.859375 200.917969 108.875 203.328125 108.875 211.464844 L 108.875 218.757812 L 112.769531 218.757812 C 112.769531 214.851562 132.160156 212.105469 140.671875 216.976562 " fill-opacity="1" fill-rule="nonzero"/><path fill="#35668f" d="M 331.023438 99.097656 C 309.289062 127.527344 310.953125 115.988281 272.074219 159.671875 C 271.53125 160.28125 270.589844 160.308594 270.003906 159.738281 L 260.785156 150.511719 C 260.203125 149.941406 260.226562 149 260.839844 148.457031 C 304.539062 109.617188 293.003906 111.265625 321.464844 89.546875 L 331.023438 99.097656 " fill-opacity="1" fill-rule="nonzero"/><path fill="#35668f" d="M 234.410156 195.066406 C 243.195312 188.617188 255.570312 178.261719 267.023438 164.175781 C 267.308594 163.820312 267.28125 163.304688 266.957031 162.992188 C 257.84375 153.886719 257.355469 152.691406 256.347656 153.507812 C 242.253906 164.9375 231.878906 177.308594 225.4375 186.085938 C 226.621094 190.386719 230.011719 193.839844 234.410156 195.066406 " fill-opacity="1" fill-rule="nonzero"/><path fill="#35668f" d="M 224.265625 187.691406 C 219.839844 193.855469 217.59375 197.898438 217.59375 197.898438 L 222.605469 202.90625 C 222.605469 202.90625 226.636719 200.644531 232.816406 196.222656 C 228.882812 194.753906 225.738281 191.625 224.265625 187.691406 " fill-opacity="1" fill-rule="nonzero"/><path fill="#35668f" d="M 327.917969 92.636719 C 321.574219 86.292969 318.222656 89.65625 324.570312 95.996094 C 330.914062 102.339844 334.261719 98.992188 327.917969 92.636719 " fill-opacity="1" fill-rule="nonzero"/><path fill="#35668f" d="M 218.804688 197.378906 C 218.75 197.476562 214.367188 206.101562 214.460938 206.0625 L 223.109375 201.695312 L 218.804688 197.378906 " fill-opacity="1" fill-rule="nonzero"/><path fill="#35668f" d="M 331.648438 109.238281 C 333.910156 111.484375 316.914062 130.683594 291.113281 146.960938 C 289.4375 148.023438 287.488281 146.46875 288.074219 144.6875 C 288.648438 142.960938 290.171875 136.167969 296.707031 138.480469 C 310.242188 129.078125 318.589844 120.695312 323.328125 115.128906 L 319.164062 110.964844 L 326.269531 103.863281 L 331.648438 109.238281 " fill-opacity="1" fill-rule="nonzero"/><g clip-path="url(#70fb911295)"><g clip-path="url(#1289fe1751)"><g clip-path="url(#774d702737)"><g clip-path="url(#f9f0959dff)"><path fill="#000000" d="M 210.539062 110.976562 L 210.542969 110.976562 L 210.542969 110.964844 Z M 210.539062 110.976562 " fill-opacity="1" fill-rule="nonzero"/></g></g></g></g><g clip-path="url(#c227d004a1)"><g clip-path="url(#93a0aa632d)"><g clip-path="url(#82f9ef1b4d)"><g clip-path="url(#85dd072b4a)"><path fill="#f2bb30" d="M 218.085938 149.136719 C 224.148438 149.367188 226.550781 145.222656 228.898438 138.960938 C 231.332031 132.515625 231.472656 126.230469 229.703125 117.789062 C 228.429688 111.707031 225.757812 107.054688 219.691406 106.824219 L 211.878906 106.527344 L 211.527344 115.773438 C 211.253906 122.949219 204.941406 128.761719 198.003906 128.496094 L 177.179688 127.707031 C 171.484375 127.488281 166.582031 132.183594 166.363281 137.898438 L 165.609375 157.746094 C 165.394531 163.398438 170.183594 166.902344 175.621094 168.730469 C 182.132812 170.910156 188.460938 171.5 196.441406 169.519531 C 201.742188 168.199219 207.027344 165.332031 207.253906 159.328125 L 207.558594 151.390625 L 186.75 150.601562 L 186.851562 147.953125 L 218.085938 149.140625 Z M 198.25 156.332031 C 200.414062 156.414062 202.101562 158.253906 202.019531 160.4375 C 201.9375 162.644531 200.113281 164.351562 197.949219 164.269531 C 195.800781 164.1875 194.097656 162.324219 194.179688 160.140625 C 194.285156 157.9375 196.109375 156.25 198.25 156.332031 Z M 198.25 156.332031 " fill-opacity="1" fill-rule="nonzero"/></g></g></g></g><g clip-path="url(#0804e6f21f)"><g clip-path="url(#cc91da2b9b)"><g clip-path="url(#9d32615310)"><g clip-path="url(#94ed54e435)"><path fill="#35668f" d="M 155.289062 146.753906 L 162.441406 147.023438 L 162.804688 137.507812 C 163.066406 130.625 169.242188 124.785156 176.316406 125.054688 L 197.136719 125.84375 C 202.929688 126.066406 207.730469 121.464844 207.953125 115.652344 L 208.707031 95.789062 C 208.921875 90.136719 204.328125 85.722656 198.707031 84.554688 C 191.769531 83.136719 184.183594 82.914062 177.886719 83.785156 L 177.890625 83.78125 C 169.015625 85.003906 167.296875 88.199219 167.070312 94.222656 L 166.769531 102.160156 L 187.609375 102.953125 L 187.511719 105.605469 L 158.847656 104.515625 C 152.78125 104.285156 147.339844 107.730469 145.421875 114.589844 C 143.210938 122.453125 142.945312 127.398438 144.617188 135.761719 C 145.863281 141.980469 149.226562 146.523438 155.289062 146.753906 Z M 176.070312 97.203125 C 173.910156 97.121094 172.21875 95.277344 172.300781 93.09375 C 172.410156 90.890625 174.210938 89.183594 176.375 89.265625 C 178.519531 89.347656 180.226562 91.203125 180.140625 93.390625 C 180.058594 95.578125 178.238281 97.285156 176.070312 97.203125 Z M 176.070312 97.203125 " fill-opacity="1" fill-rule="nonzero"/></g></g></g></g><g fill="#35668f" fill-opacity="1"><g transform="translate(46.901339, 282.587411)"><g><path d="M 13.296875 0.328125 C 11.003906 0.328125 8.972656 -0.0820312 7.203125 -0.90625 C 5.429688 -1.738281 4.050781 -2.925781 3.0625 -4.46875 C 2.070312 -6.007812 1.578125 -7.867188 1.578125 -10.046875 C 1.578125 -11.804688 1.882812 -13.382812 2.5 -14.78125 C 3.125 -16.1875 4 -17.378906 5.125 -18.359375 C 6.25 -19.335938 7.582031 -20.082031 9.125 -20.59375 C 10.664062 -21.113281 12.359375 -21.375 14.203125 -21.375 C 15.296875 -21.375 16.382812 -21.257812 17.46875 -21.03125 C 18.5625 -20.800781 19.46875 -20.507812 20.1875 -20.15625 L 20.375 -15.0625 L 18.109375 -14.984375 L 17 -18.28125 C 16.519531 -18.550781 15.992188 -18.738281 15.421875 -18.84375 C 14.847656 -18.945312 14.320312 -19 13.84375 -19 C 12.457031 -19 11.265625 -18.675781 10.265625 -18.03125 C 9.273438 -17.382812 8.53125 -16.460938 8.03125 -15.265625 C 7.53125 -14.078125 7.28125 -12.671875 7.28125 -11.046875 C 7.28125 -9.203125 7.585938 -7.609375 8.203125 -6.265625 C 8.828125 -4.929688 9.664062 -3.90625 10.71875 -3.1875 C 11.769531 -2.46875 12.929688 -2.109375 14.203125 -2.109375 C 14.554688 -2.109375 14.96875 -2.15625 15.4375 -2.25 C 15.90625 -2.351562 16.316406 -2.507812 16.671875 -2.71875 L 15.921875 -0.78125 L 15.921875 -4.59375 C 15.921875 -5.09375 15.90625 -5.628906 15.875 -6.203125 C 15.851562 -6.773438 15.820312 -7.21875 15.78125 -7.53125 L 13.234375 -8.0625 L 13.34375 -9.9375 L 22.34375 -9.9375 L 22.453125 -8.140625 L 20.65625 -7.5625 C 20.632812 -7.320312 20.628906 -6.953125 20.640625 -6.453125 C 20.648438 -5.953125 20.65625 -5.425781 20.65625 -4.875 C 20.65625 -4.46875 20.664062 -4 20.6875 -3.46875 C 20.707031 -2.945312 20.734375 -2.328125 20.765625 -1.609375 C 19.710938 -0.960938 18.535156 -0.476562 17.234375 -0.15625 C 15.929688 0.164062 14.617188 0.328125 13.296875 0.328125 Z M 13.296875 0.328125 "/></g></g></g><g fill="#35668f" fill-opacity="1"><g transform="translate(72.549244, 282.587411)"><g><path d="M 18.640625 0.21875 C 17.972656 0.164062 17.164062 0.113281 16.21875 0.0625 C 15.28125 0.0195312 14.425781 0 13.65625 0 L 1.328125 0 L 1.21875 -1.796875 L 3.515625 -2.359375 C 3.554688 -2.484375 3.59375 -2.796875 3.625 -3.296875 C 3.664062 -3.796875 3.695312 -4.445312 3.71875 -5.25 C 3.75 -6.050781 3.765625 -6.929688 3.765625 -7.890625 L 3.765625 -13.125 C 3.765625 -14.125 3.75 -15.023438 3.71875 -15.828125 C 3.695312 -16.628906 3.664062 -17.28125 3.625 -17.78125 C 3.59375 -18.28125 3.554688 -18.582031 3.515625 -18.6875 L 1.21875 -19.25 L 1.328125 -21.046875 L 12.375 -21.046875 C 12.851562 -21.046875 13.429688 -21.050781 14.109375 -21.0625 C 14.785156 -21.070312 15.453125 -21.09375 16.109375 -21.125 C 16.773438 -21.164062 17.332031 -21.203125 17.78125 -21.234375 L 18.75 -15.921875 L 16.671875 -15.640625 L 15.34375 -18.796875 C 15.03125 -18.859375 14.75 -18.898438 14.5 -18.921875 C 14.25 -18.953125 13.984375 -18.96875 13.703125 -18.96875 L 10.96875 -18.96875 C 10.519531 -18.96875 10.082031 -18.960938 9.65625 -18.953125 C 9.238281 -18.941406 8.898438 -18.910156 8.640625 -18.859375 C 8.640625 -18.671875 8.632812 -18.382812 8.625 -18 C 8.613281 -17.613281 8.597656 -17.125 8.578125 -16.53125 C 8.566406 -15.9375 8.5625 -15.234375 8.5625 -14.421875 L 8.5625 -6.890625 C 8.5625 -6.117188 8.566406 -5.429688 8.578125 -4.828125 C 8.597656 -4.234375 8.613281 -3.738281 8.625 -3.34375 C 8.632812 -2.957031 8.640625 -2.65625 8.640625 -2.4375 C 9.066406 -2.363281 9.519531 -2.316406 10 -2.296875 C 10.476562 -2.273438 11.078125 -2.265625 11.796875 -2.265625 L 13.703125 -2.265625 C 14.316406 -2.265625 14.773438 -2.269531 15.078125 -2.28125 C 15.378906 -2.289062 15.609375 -2.304688 15.765625 -2.328125 C 15.921875 -2.347656 16.082031 -2.375 16.25 -2.40625 L 18.21875 -5.984375 L 20.265625 -5.59375 Z M 14.09375 -7.171875 L 13.734375 -9.578125 C 13.566406 -9.597656 13.300781 -9.613281 12.9375 -9.625 C 12.582031 -9.632812 12.164062 -9.640625 11.6875 -9.640625 L 9.796875 -9.640625 C 9.390625 -9.640625 9 -9.628906 8.625 -9.609375 C 8.25 -9.585938 7.96875 -9.5625 7.78125 -9.53125 L 7.78125 -12.078125 C 7.96875 -12.054688 8.25 -12.035156 8.625 -12.015625 C 9 -11.992188 9.390625 -11.984375 9.796875 -11.984375 L 11.6875 -11.984375 C 12.164062 -11.984375 12.582031 -11.988281 12.9375 -12 C 13.300781 -12.007812 13.566406 -12.015625 13.734375 -12.015625 L 14.09375 -14.421875 L 16.0625 -14.421875 L 16.0625 -7.171875 Z M 14.09375 -7.171875 "/></g></g></g><g fill="#35668f" fill-opacity="1"><g transform="translate(95.4004, 282.587411)"><g><path d="M -0.03125 0 L -0.140625 -1.796875 L 1.71875 -2.359375 L 9 -20.015625 L 12.015625 -21.6875 L 20.265625 -2.359375 L 22.125 -1.796875 L 22.015625 0 L 12.40625 0 L 12.296875 -1.796875 L 14.59375 -2.359375 L 12.65625 -7 L 12.265625 -8.21875 L 8.671875 -16.671875 L 9.71875 -16.390625 L 6.734375 -8.3125 L 6.421875 -7.25 L 4.703125 -2.359375 L 7 -1.796875 L 6.890625 0 Z M 5.5625 -6.09375 L 5.5625 -8.53125 C 6.039062 -8.507812 6.578125 -8.476562 7.171875 -8.4375 C 7.765625 -8.40625 8.566406 -8.390625 9.578125 -8.390625 C 10.535156 -8.390625 11.328125 -8.40625 11.953125 -8.4375 C 12.585938 -8.476562 13.132812 -8.507812 13.59375 -8.53125 L 13.59375 -6.125 C 13.132812 -6.125 12.582031 -6.132812 11.9375 -6.15625 C 11.289062 -6.1875 10.503906 -6.203125 9.578125 -6.203125 C 8.597656 -6.203125 7.796875 -6.1875 7.171875 -6.15625 C 6.546875 -6.132812 6.007812 -6.113281 5.5625 -6.09375 Z M 5.5625 -6.09375 "/></g></g></g><g fill="#35668f" fill-opacity="1"><g transform="translate(119.219664, 282.587411)"><g><path d="M 1.296875 -21.046875 L 10.90625 -21.046875 L 11.015625 -19.25 L 8.71875 -18.640625 C 8.6875 -18.398438 8.660156 -18.023438 8.640625 -17.515625 C 8.617188 -17.003906 8.59375 -16.382812 8.5625 -15.65625 C 8.539062 -14.925781 8.53125 -14.082031 8.53125 -13.125 L 8.53125 -9.4375 C 8.53125 -8.039062 8.726562 -6.863281 9.125 -5.90625 C 9.519531 -4.957031 10.097656 -4.242188 10.859375 -3.765625 C 11.628906 -3.285156 12.5625 -3.046875 13.65625 -3.046875 C 14.757812 -3.046875 15.675781 -3.28125 16.40625 -3.75 C 17.132812 -4.21875 17.675781 -4.925781 18.03125 -5.875 C 18.394531 -6.832031 18.578125 -8.03125 18.578125 -9.46875 L 18.578125 -12.484375 C 18.578125 -13.578125 18.5625 -14.578125 18.53125 -15.484375 C 18.507812 -16.398438 18.476562 -17.132812 18.4375 -17.6875 C 18.40625 -18.25 18.367188 -18.566406 18.328125 -18.640625 L 15.8125 -19.25 L 15.921875 -21.046875 L 23.921875 -21.046875 L 24.03125 -19.25 L 21.734375 -18.640625 C 21.703125 -18.566406 21.671875 -18.25 21.640625 -17.6875 C 21.609375 -17.132812 21.578125 -16.398438 21.546875 -15.484375 C 21.523438 -14.578125 21.515625 -13.578125 21.515625 -12.484375 L 21.515625 -8.859375 C 21.515625 -6.972656 21.164062 -5.34375 20.46875 -3.96875 C 19.78125 -2.59375 18.796875 -1.53125 17.515625 -0.78125 C 16.234375 -0.0390625 14.722656 0.328125 12.984375 0.328125 C 9.992188 0.328125 7.691406 -0.46875 6.078125 -2.0625 C 4.460938 -3.65625 3.65625 -5.910156 3.65625 -8.828125 L 3.65625 -13.125 C 3.65625 -14.125 3.640625 -15.03125 3.609375 -15.84375 C 3.585938 -16.65625 3.566406 -17.304688 3.546875 -17.796875 C 3.523438 -18.285156 3.503906 -18.566406 3.484375 -18.640625 L 1.1875 -19.25 Z M 1.296875 -21.046875 "/></g></g></g><g fill="#35668f" fill-opacity="1"><g transform="translate(146.37351, 282.587411)"><g><path d="M 21.65625 0 L 11.984375 0 L 11.875 -1.796875 L 14.09375 -2.40625 L 10.046875 -8.28125 L 8.5625 -10.296875 L 2.71875 -18.6875 L 0.890625 -19.25 L 1 -21.046875 L 10.1875 -21.046875 L 10.296875 -19.25 L 8.53125 -18.6875 L 11.796875 -14.015625 L 13.15625 -12.046875 L 19.9375 -2.40625 L 21.765625 -1.796875 Z M 15.03125 -18.6875 L 13.15625 -19.25 L 13.265625 -21.046875 L 20.15625 -21.046875 L 20.265625 -19.25 L 18.4375 -18.6875 L 13.15625 -12.046875 L 10.046875 -8.28125 L 5.984375 -2.40625 L 8.3125 -1.796875 L 8.21875 0 L 0.859375 0 L 0.75 -1.796875 L 2.578125 -2.40625 L 8.5625 -10.296875 L 11.796875 -14.015625 Z M 15.03125 -18.6875 "/></g></g></g><g fill="#35668f" fill-opacity="1"><g transform="translate(170.121056, 282.587411)"><g/></g></g><g fill="#35668f" fill-opacity="1"><g transform="translate(179.167735, 282.587411)"><g><path d="M 1.5 0 L 1.40625 -1.796875 L 3.515625 -2.359375 C 3.585938 -2.460938 3.632812 -2.75 3.65625 -3.21875 C 3.675781 -3.695312 3.695312 -4.328125 3.71875 -5.109375 C 3.75 -5.890625 3.765625 -6.753906 3.765625 -7.703125 L 3.796875 -13.484375 C 3.796875 -14.390625 3.785156 -15.222656 3.765625 -15.984375 C 3.742188 -16.753906 3.71875 -17.390625 3.6875 -17.890625 C 3.664062 -18.390625 3.617188 -18.691406 3.546875 -18.796875 L 1.296875 -19.25 L 1.40625 -21.046875 L 10.5 -21.046875 C 13.445312 -21.046875 15.640625 -20.515625 17.078125 -19.453125 C 18.523438 -18.390625 19.25 -16.863281 19.25 -14.875 C 19.25 -13.5625 18.898438 -12.378906 18.203125 -11.328125 C 17.515625 -10.273438 16.519531 -9.441406 15.21875 -8.828125 C 13.914062 -8.222656 12.34375 -7.921875 10.5 -7.921875 C 10.09375 -7.921875 9.6875 -7.941406 9.28125 -7.984375 C 8.875 -8.035156 8.492188 -8.097656 8.140625 -8.171875 L 8.140625 -10.65625 C 8.398438 -10.53125 8.734375 -10.425781 9.140625 -10.34375 C 9.546875 -10.257812 10 -10.21875 10.5 -10.21875 C 11.65625 -10.21875 12.539062 -10.578125 13.15625 -11.296875 C 13.78125 -12.015625 14.09375 -13.054688 14.09375 -14.421875 C 14.09375 -16.015625 13.695312 -17.179688 12.90625 -17.921875 C 12.113281 -18.671875 11.039062 -19.046875 9.6875 -19.046875 L 8.671875 -19.046875 C 8.671875 -18.847656 8.664062 -18.519531 8.65625 -18.0625 C 8.644531 -17.613281 8.632812 -17.007812 8.625 -16.25 C 8.613281 -15.5 8.609375 -14.578125 8.609375 -13.484375 L 8.640625 -7.703125 C 8.640625 -6.753906 8.65625 -5.890625 8.6875 -5.109375 C 8.726562 -4.328125 8.765625 -3.703125 8.796875 -3.234375 C 8.835938 -2.773438 8.867188 -2.5 8.890625 -2.40625 L 11.796875 -1.859375 L 11.6875 0 Z M 1.5 0 "/></g></g></g><g fill="#35668f" fill-opacity="1"><g transform="translate(201.552763, 282.587411)"><g><path d="M 18.9375 -18.6875 L 11.328125 -6.5625 L 12.875 -10.140625 L 12.875 -6.5625 C 12.875 -6.132812 12.878906 -5.6875 12.890625 -5.21875 C 12.898438 -4.75 12.910156 -4.316406 12.921875 -3.921875 C 12.929688 -3.523438 12.953125 -3.179688 12.984375 -2.890625 C 13.023438 -2.609375 13.0625 -2.429688 13.09375 -2.359375 L 15.59375 -1.828125 L 15.484375 0 L 5.484375 0 L 5.375 -1.828125 L 7.890625 -2.359375 C 7.910156 -2.429688 7.929688 -2.609375 7.953125 -2.890625 C 7.984375 -3.179688 8.007812 -3.523438 8.03125 -3.921875 C 8.050781 -4.316406 8.0625 -4.75 8.0625 -5.21875 C 8.0625 -5.6875 8.0625 -6.132812 8.0625 -6.5625 L 8.0625 -10.140625 L 9.25 -6.5625 L 2.078125 -18.6875 L 0.25 -19.25 L 0.359375 -21.046875 L 9.828125 -21.046875 L 9.9375 -19.25 L 7.671875 -18.6875 L 12.234375 -10.828125 L 11.359375 -10.828125 L 15.921875 -18.6875 L 13.40625 -19.25 L 13.515625 -21.046875 L 20.65625 -21.046875 L 20.765625 -19.25 Z M 18.9375 -18.6875 "/></g></g></g><g fill="#35668f" fill-opacity="1"><g transform="translate(224.547339, 282.587411)"><g><path d="M 20.546875 -21.234375 L 21.375 -14.875 L 19.140625 -14.703125 L 17.71875 -18.828125 C 17.476562 -18.867188 17.222656 -18.894531 16.953125 -18.90625 C 16.691406 -18.925781 16.40625 -18.9375 16.09375 -18.9375 L 14.875 -18.9375 C 14.664062 -18.9375 14.421875 -18.9375 14.140625 -18.9375 C 13.867188 -18.9375 13.660156 -18.910156 13.515625 -18.859375 C 13.515625 -18.710938 13.507812 -18.269531 13.5 -17.53125 C 13.488281 -16.789062 13.476562 -15.90625 13.46875 -14.875 C 13.457031 -13.851562 13.453125 -12.816406 13.453125 -11.765625 L 13.453125 -8.421875 C 13.453125 -7.085938 13.460938 -5.878906 13.484375 -4.796875 C 13.503906 -3.722656 13.523438 -2.910156 13.546875 -2.359375 L 16.671875 -1.859375 L 16.5625 0 L 5.421875 0 L 5.3125 -1.859375 L 8.421875 -2.359375 C 8.453125 -2.910156 8.476562 -3.722656 8.5 -4.796875 C 8.519531 -5.878906 8.53125 -7.085938 8.53125 -8.421875 L 8.53125 -11.765625 C 8.53125 -12.816406 8.523438 -13.851562 8.515625 -14.875 C 8.503906 -15.90625 8.5 -16.789062 8.5 -17.53125 C 8.5 -18.269531 8.488281 -18.710938 8.46875 -18.859375 C 8.320312 -18.910156 8.109375 -18.9375 7.828125 -18.9375 C 7.554688 -18.9375 7.3125 -18.9375 7.09375 -18.9375 L 5.84375 -18.9375 C 5.5625 -18.9375 5.269531 -18.925781 4.96875 -18.90625 C 4.664062 -18.894531 4.394531 -18.867188 4.15625 -18.828125 L 2.796875 -14.625 L 0.578125 -14.84375 L 1.328125 -21.234375 C 1.566406 -21.234375 1.90625 -21.21875 2.34375 -21.1875 C 2.789062 -21.164062 3.257812 -21.140625 3.75 -21.109375 C 4.238281 -21.085938 4.710938 -21.070312 5.171875 -21.0625 C 5.640625 -21.050781 6.039062 -21.046875 6.375 -21.046875 L 15.484375 -21.046875 C 15.828125 -21.046875 16.222656 -21.050781 16.671875 -21.0625 C 17.128906 -21.070312 17.609375 -21.085938 18.109375 -21.109375 C 18.609375 -21.140625 19.070312 -21.164062 19.5 -21.1875 C 19.9375 -21.21875 20.285156 -21.234375 20.546875 -21.234375 Z M 20.546875 -21.234375 "/></g></g></g><g fill="#35668f" fill-opacity="1"><g transform="translate(248.510033, 282.587411)"><g><path d="M 14.203125 0 L 14.09375 -1.796875 L 16.3125 -2.359375 C 16.363281 -2.503906 16.40625 -2.832031 16.4375 -3.34375 C 16.476562 -3.863281 16.507812 -4.515625 16.53125 -5.296875 C 16.550781 -6.085938 16.5625 -6.953125 16.5625 -7.890625 L 16.5625 -13.125 C 16.5625 -14.101562 16.550781 -14.992188 16.53125 -15.796875 C 16.507812 -16.597656 16.476562 -17.253906 16.4375 -17.765625 C 16.40625 -18.273438 16.363281 -18.582031 16.3125 -18.6875 L 14.09375 -19.25 L 14.203125 -21.046875 L 23.84375 -21.046875 L 23.953125 -19.25 L 21.6875 -18.6875 C 21.644531 -18.582031 21.601562 -18.25 21.5625 -17.6875 C 21.53125 -17.132812 21.492188 -16.453125 21.453125 -15.640625 C 21.421875 -14.828125 21.40625 -13.988281 21.40625 -13.125 L 21.40625 -7.890625 C 21.40625 -7.078125 21.421875 -6.265625 21.453125 -5.453125 C 21.492188 -4.640625 21.53125 -3.957031 21.5625 -3.40625 C 21.601562 -2.851562 21.644531 -2.503906 21.6875 -2.359375 L 23.953125 -1.796875 L 23.84375 0 Z M 1.359375 0 L 1.25 -1.796875 L 3.515625 -2.359375 C 3.554688 -2.484375 3.59375 -2.796875 3.625 -3.296875 C 3.664062 -3.796875 3.695312 -4.445312 3.71875 -5.25 C 3.75 -6.050781 3.765625 -6.929688 3.765625 -7.890625 L 3.765625 -13.125 C 3.765625 -14.125 3.75 -15.023438 3.71875 -15.828125 C 3.695312 -16.628906 3.664062 -17.285156 3.625 -17.796875 C 3.59375 -18.316406 3.554688 -18.613281 3.515625 -18.6875 L 1.25 -19.25 L 1.359375 -21.046875 L 10.9375 -21.046875 L 11.046875 -19.25 L 8.828125 -18.6875 C 8.773438 -18.582031 8.726562 -18.273438 8.6875 -17.765625 C 8.65625 -17.253906 8.632812 -16.597656 8.625 -15.796875 C 8.613281 -14.992188 8.609375 -14.101562 8.609375 -13.125 L 8.609375 -7.890625 C 8.609375 -6.953125 8.613281 -6.085938 8.625 -5.296875 C 8.632812 -4.515625 8.65625 -3.863281 8.6875 -3.34375 C 8.726562 -2.832031 8.773438 -2.503906 8.828125 -2.359375 L 11.046875 -1.796875 L 10.9375 0 Z M 7.8125 -9.390625 L 7.8125 -12.125 C 8.382812 -12.050781 9.039062 -12 9.78125 -11.96875 C 10.53125 -11.945312 11.46875 -11.9375 12.59375 -11.9375 C 13.707031 -11.9375 14.632812 -11.945312 15.375 -11.96875 C 16.125 -12 16.785156 -12.050781 17.359375 -12.125 L 17.359375 -9.390625 C 16.859375 -9.421875 16.234375 -9.453125 15.484375 -9.484375 C 14.742188 -9.515625 13.78125 -9.53125 12.59375 -9.53125 C 11.394531 -9.53125 10.421875 -9.515625 9.671875 -9.484375 C 8.929688 -9.453125 8.3125 -9.421875 7.8125 -9.390625 Z M 7.8125 -9.390625 "/></g></g></g><g fill="#35668f" fill-opacity="1"><g transform="translate(275.699734, 282.587411)"><g><path d="M 12.90625 0.328125 C 10.707031 0.328125 8.753906 -0.125 7.046875 -1.03125 C 5.335938 -1.945312 4 -3.195312 3.03125 -4.78125 C 2.0625 -6.375 1.578125 -8.195312 1.578125 -10.25 C 1.578125 -12.40625 2.0625 -14.316406 3.03125 -15.984375 C 4 -17.660156 5.34375 -18.976562 7.0625 -19.9375 C 8.78125 -20.894531 10.738281 -21.375 12.9375 -21.375 C 15.070312 -21.375 16.953125 -20.925781 18.578125 -20.03125 C 20.203125 -19.132812 21.476562 -17.894531 22.40625 -16.3125 C 23.34375 -14.738281 23.8125 -12.898438 23.8125 -10.796875 C 23.8125 -8.953125 23.46875 -7.335938 22.78125 -5.953125 C 22.101562 -4.566406 21.21875 -3.40625 20.125 -2.46875 C 19.039062 -1.539062 17.863281 -0.84375 16.59375 -0.375 C 15.332031 0.09375 14.101562 0.328125 12.90625 0.328125 Z M 13.203125 -2.359375 C 14.296875 -2.359375 15.210938 -2.648438 15.953125 -3.234375 C 16.691406 -3.828125 17.25 -4.6875 17.625 -5.8125 C 18 -6.9375 18.1875 -8.296875 18.1875 -9.890625 C 18.1875 -11.734375 17.945312 -13.335938 17.46875 -14.703125 C 16.988281 -16.066406 16.328125 -17.125 15.484375 -17.875 C 14.648438 -18.625 13.660156 -19 12.515625 -19 C 10.867188 -19 9.578125 -18.316406 8.640625 -16.953125 C 7.710938 -15.597656 7.25 -13.710938 7.25 -11.296875 C 7.25 -9.523438 7.503906 -7.96875 8.015625 -6.625 C 8.523438 -5.289062 9.222656 -4.242188 10.109375 -3.484375 C 10.992188 -2.734375 12.023438 -2.359375 13.203125 -2.359375 Z M 13.203125 -2.359375 "/></g></g></g><g fill="#35668f" fill-opacity="1"><g transform="translate(303.068714, 282.587411)"><g><path d="M 18.609375 -6.640625 L 18.609375 -12.125 C 18.609375 -13.289062 18.601562 -14.34375 18.59375 -15.28125 C 18.582031 -16.226562 18.554688 -17 18.515625 -17.59375 C 18.484375 -18.195312 18.441406 -18.5625 18.390625 -18.6875 L 15.890625 -19.25 L 16 -21.046875 L 23.625 -21.046875 L 23.734375 -19.25 L 21.4375 -18.6875 C 21.414062 -18.5625 21.382812 -18.207031 21.34375 -17.625 C 21.3125 -17.039062 21.285156 -16.269531 21.265625 -15.3125 C 21.242188 -14.351562 21.234375 -13.289062 21.234375 -12.125 L 21.234375 -5.3125 C 21.234375 -4.1875 21.234375 -3.195312 21.234375 -2.34375 C 21.234375 -1.5 21.234375 -0.660156 21.234375 0.171875 L 19.046875 0.171875 L 4.625 -16.5 L 6.53125 -16.5 L 6.53125 -9.359375 C 6.53125 -8.066406 6.539062 -6.925781 6.5625 -5.9375 C 6.582031 -4.945312 6.609375 -4.144531 6.640625 -3.53125 C 6.679688 -2.925781 6.738281 -2.535156 6.8125 -2.359375 L 9.28125 -1.796875 L 9.1875 0 L 1.4375 0 L 1.328125 -1.796875 L 3.578125 -2.359375 C 3.628906 -2.535156 3.671875 -2.9375 3.703125 -3.5625 C 3.742188 -4.195312 3.773438 -5.019531 3.796875 -6.03125 C 3.828125 -7.050781 3.84375 -8.160156 3.84375 -9.359375 L 3.84375 -14.125 C 3.84375 -14.769531 3.820312 -15.414062 3.78125 -16.0625 C 3.75 -16.707031 3.710938 -17.269531 3.671875 -17.75 C 3.640625 -18.226562 3.609375 -18.539062 3.578125 -18.6875 L 1.328125 -19.25 L 1.4375 -21.046875 L 7.09375 -21.046875 L 20.078125 -6.640625 Z M 18.609375 -6.640625 "/></g></g></g><g fill="#35668f" fill-opacity="1"><g transform="translate(149.518486, 311.5998)"><g><path d="M 8.6875 -3.4375 L 8.6875 -5.25 C 8.6875 -5.707031 8.679688 -6.164062 8.671875 -6.625 C 8.671875 -7.082031 8.660156 -7.472656 8.640625 -7.796875 C 8.628906 -8.128906 8.609375 -8.320312 8.578125 -8.375 L 7.40625 -8.6875 L 7.453125 -9.625 L 11.1875 -9.625 L 11.234375 -8.6875 L 10.171875 -8.375 C 10.148438 -8.320312 10.128906 -8.132812 10.109375 -7.8125 C 10.085938 -7.488281 10.070312 -7.097656 10.0625 -6.640625 C 10.0625 -6.179688 10.0625 -5.71875 10.0625 -5.25 L 10.0625 -2.609375 C 10.0625 -2.003906 10.054688 -1.492188 10.046875 -1.078125 C 10.046875 -0.671875 10.046875 -0.28125 10.046875 0.09375 L 8.875 0.09375 L 1.9375 -7.25 L 3.140625 -7.25 L 3.140625 -4.6875 C 3.140625 -4.144531 3.140625 -3.625 3.140625 -3.125 C 3.148438 -2.625 3.164062 -2.203125 3.1875 -1.859375 C 3.21875 -1.523438 3.25 -1.320312 3.28125 -1.25 L 4.4375 -0.9375 L 4.390625 0 L 0.578125 0 L 0.53125 -0.9375 L 1.59375 -1.25 C 1.613281 -1.320312 1.628906 -1.535156 1.640625 -1.890625 C 1.660156 -2.253906 1.675781 -2.6875 1.6875 -3.1875 C 1.695312 -3.695312 1.703125 -4.195312 1.703125 -4.6875 L 1.703125 -6.453125 C 1.703125 -6.585938 1.691406 -6.785156 1.671875 -7.046875 C 1.660156 -7.316406 1.644531 -7.582031 1.625 -7.84375 C 1.613281 -8.113281 1.601562 -8.289062 1.59375 -8.375 L 0.53125 -8.6875 L 0.578125 -9.625 L 3.390625 -9.625 L 9.59375 -3.4375 Z M 8.6875 -3.4375 "/></g></g></g><g fill="#35668f" fill-opacity="1"><g transform="translate(167.01155, 311.5998)"><g><path d="M 6.0625 0.140625 C 5.019531 0.140625 4.09375 -0.0625 3.28125 -0.46875 C 2.46875 -0.882812 1.828125 -1.453125 1.359375 -2.171875 C 0.898438 -2.898438 0.671875 -3.722656 0.671875 -4.640625 C 0.671875 -5.628906 0.898438 -6.507812 1.359375 -7.28125 C 1.816406 -8.050781 2.453125 -8.65625 3.265625 -9.09375 C 4.078125 -9.539062 5.003906 -9.765625 6.046875 -9.765625 C 7.066406 -9.765625 7.960938 -9.5625 8.734375 -9.15625 C 9.503906 -8.75 10.109375 -8.1875 10.546875 -7.46875 C 10.984375 -6.75 11.203125 -5.921875 11.203125 -4.984375 C 11.203125 -4.066406 11.03125 -3.28125 10.6875 -2.625 C 10.34375 -1.976562 9.90625 -1.445312 9.375 -1.03125 C 8.84375 -0.625 8.28125 -0.328125 7.6875 -0.140625 C 7.09375 0.046875 6.550781 0.140625 6.0625 0.140625 Z M 6.15625 -1.28125 C 6.601562 -1.28125 6.96875 -1.398438 7.25 -1.640625 C 7.53125 -1.890625 7.734375 -2.253906 7.859375 -2.734375 C 7.992188 -3.222656 8.0625 -3.828125 8.0625 -4.546875 C 8.0625 -5.359375 7.96875 -6.054688 7.78125 -6.640625 C 7.601562 -7.234375 7.347656 -7.691406 7.015625 -8.015625 C 6.691406 -8.335938 6.300781 -8.5 5.84375 -8.5 C 5.226562 -8.5 4.738281 -8.210938 4.375 -7.640625 C 4.007812 -7.066406 3.828125 -6.265625 3.828125 -5.234375 C 3.828125 -4.453125 3.925781 -3.765625 4.125 -3.171875 C 4.320312 -2.578125 4.59375 -2.113281 4.9375 -1.78125 C 5.289062 -1.445312 5.695312 -1.28125 6.15625 -1.28125 Z M 6.15625 -1.28125 "/></g></g></g><g fill="#35668f" fill-opacity="1"><g transform="translate(184.619351, 311.5998)"><g><path d="M 9.984375 -9.71875 L 10.375 -6.640625 L 9.171875 -6.5625 L 8.53125 -8.484375 C 8.4375 -8.503906 8.320312 -8.515625 8.1875 -8.515625 C 8.050781 -8.523438 7.890625 -8.53125 7.703125 -8.53125 L 7.1875 -8.53125 C 7.101562 -8.53125 7.015625 -8.523438 6.921875 -8.515625 C 6.835938 -8.515625 6.785156 -8.507812 6.765625 -8.5 C 6.765625 -8.4375 6.757812 -8.226562 6.75 -7.875 C 6.738281 -7.53125 6.726562 -7.109375 6.71875 -6.609375 C 6.71875 -6.109375 6.71875 -5.59375 6.71875 -5.0625 L 6.71875 -3.96875 C 6.71875 -3.40625 6.722656 -2.882812 6.734375 -2.40625 C 6.753906 -1.925781 6.769531 -1.539062 6.78125 -1.25 L 8.25 -0.96875 L 8.1875 0 L 2.484375 0 L 2.4375 -0.96875 L 3.90625 -1.25 C 3.925781 -1.539062 3.941406 -1.925781 3.953125 -2.40625 C 3.960938 -2.882812 3.96875 -3.40625 3.96875 -3.96875 L 3.96875 -5.0625 C 3.96875 -5.59375 3.960938 -6.109375 3.953125 -6.609375 C 3.953125 -7.109375 3.945312 -7.53125 3.9375 -7.875 C 3.9375 -8.226562 3.929688 -8.4375 3.921875 -8.5 C 3.898438 -8.507812 3.84375 -8.515625 3.75 -8.515625 C 3.664062 -8.523438 3.578125 -8.53125 3.484375 -8.53125 L 2.96875 -8.53125 C 2.789062 -8.53125 2.617188 -8.523438 2.453125 -8.515625 C 2.296875 -8.515625 2.164062 -8.503906 2.0625 -8.484375 L 1.484375 -6.515625 L 0.296875 -6.625 L 0.625 -9.71875 C 0.726562 -9.71875 0.898438 -9.710938 1.140625 -9.703125 C 1.378906 -9.691406 1.640625 -9.679688 1.921875 -9.671875 C 2.210938 -9.660156 2.488281 -9.648438 2.75 -9.640625 C 3.007812 -9.628906 3.222656 -9.625 3.390625 -9.625 L 7.234375 -9.625 C 7.390625 -9.625 7.597656 -9.628906 7.859375 -9.640625 C 8.128906 -9.648438 8.40625 -9.660156 8.6875 -9.671875 C 8.96875 -9.679688 9.222656 -9.691406 9.453125 -9.703125 C 9.691406 -9.710938 9.867188 -9.71875 9.984375 -9.71875 Z M 9.984375 -9.71875 "/></g></g></g><g fill="#35668f" fill-opacity="1"><g transform="translate(201.030615, 311.5998)"><g><path d="M 8.921875 0.109375 C 8.578125 0.0859375 8.140625 0.0625 7.609375 0.03125 C 7.078125 0.0078125 6.601562 0 6.1875 0 L 0.546875 0 L 0.484375 -0.9375 L 1.5625 -1.25 C 1.582031 -1.289062 1.601562 -1.4375 1.625 -1.6875 C 1.644531 -1.9375 1.660156 -2.253906 1.671875 -2.640625 C 1.679688 -3.023438 1.6875 -3.421875 1.6875 -3.828125 L 1.6875 -5.796875 C 1.6875 -6.222656 1.679688 -6.628906 1.671875 -7.015625 C 1.660156 -7.398438 1.644531 -7.710938 1.625 -7.953125 C 1.601562 -8.203125 1.582031 -8.34375 1.5625 -8.375 L 0.484375 -8.6875 L 0.546875 -9.625 L 5.421875 -9.625 C 5.691406 -9.625 6.019531 -9.625 6.40625 -9.625 C 6.800781 -9.632812 7.179688 -9.644531 7.546875 -9.65625 C 7.921875 -9.675781 8.222656 -9.695312 8.453125 -9.71875 L 8.96875 -7.109375 L 7.875 -6.96875 L 7.234375 -8.46875 C 7.054688 -8.5 6.90625 -8.519531 6.78125 -8.53125 C 6.664062 -8.539062 6.539062 -8.546875 6.40625 -8.546875 L 5.5625 -8.546875 C 5.351562 -8.546875 5.140625 -8.539062 4.921875 -8.53125 C 4.710938 -8.53125 4.554688 -8.519531 4.453125 -8.5 C 4.441406 -8.394531 4.429688 -8.257812 4.421875 -8.09375 C 4.421875 -7.925781 4.414062 -7.707031 4.40625 -7.4375 C 4.40625 -7.164062 4.40625 -6.816406 4.40625 -6.390625 L 4.40625 -3.5625 C 4.40625 -3.125 4.40625 -2.753906 4.40625 -2.453125 C 4.414062 -2.148438 4.421875 -1.898438 4.421875 -1.703125 C 4.429688 -1.515625 4.441406 -1.363281 4.453125 -1.25 C 4.671875 -1.21875 4.898438 -1.191406 5.140625 -1.171875 C 5.390625 -1.160156 5.71875 -1.15625 6.125 -1.15625 L 6.5625 -1.15625 C 6.863281 -1.15625 7.078125 -1.15625 7.203125 -1.15625 C 7.328125 -1.15625 7.421875 -1.160156 7.484375 -1.171875 C 7.546875 -1.191406 7.625 -1.210938 7.71875 -1.234375 L 8.65625 -2.921875 L 9.703125 -2.71875 Z M 6.671875 -3.21875 L 6.515625 -4.3125 C 6.441406 -4.3125 6.304688 -4.3125 6.109375 -4.3125 C 5.921875 -4.320312 5.710938 -4.328125 5.484375 -4.328125 L 4.84375 -4.328125 C 4.625 -4.328125 4.429688 -4.320312 4.265625 -4.3125 C 4.109375 -4.300781 4.015625 -4.289062 3.984375 -4.28125 L 3.984375 -5.609375 C 4.015625 -5.597656 4.109375 -5.582031 4.265625 -5.5625 C 4.429688 -5.550781 4.625 -5.546875 4.84375 -5.546875 L 5.484375 -5.546875 C 5.710938 -5.546875 5.921875 -5.546875 6.109375 -5.546875 C 6.304688 -5.554688 6.441406 -5.5625 6.515625 -5.5625 L 6.671875 -6.625 L 7.71875 -6.625 L 7.71875 -3.21875 Z M 6.671875 -3.21875 "/></g></g></g><g fill="#35668f" fill-opacity="1"><g transform="translate(216.58956, 311.5998)"><g><path d="M 4.015625 0.140625 C 3.554688 0.140625 3.035156 0.0703125 2.453125 -0.0625 C 1.878906 -0.207031 1.367188 -0.398438 0.921875 -0.640625 L 0.859375 -3.25 L 2.125 -3.3125 L 2.734375 -1.46875 C 2.910156 -1.363281 3.132812 -1.269531 3.40625 -1.1875 C 3.6875 -1.113281 3.957031 -1.078125 4.21875 -1.078125 C 4.664062 -1.078125 5 -1.160156 5.21875 -1.328125 C 5.445312 -1.503906 5.5625 -1.742188 5.5625 -2.046875 C 5.5625 -2.410156 5.445312 -2.703125 5.21875 -2.921875 C 5 -3.140625 4.707031 -3.316406 4.34375 -3.453125 C 3.988281 -3.597656 3.609375 -3.738281 3.203125 -3.875 C 2.804688 -4.019531 2.429688 -4.203125 2.078125 -4.421875 C 1.722656 -4.640625 1.429688 -4.925781 1.203125 -5.28125 C 0.984375 -5.632812 0.875 -6.101562 0.875 -6.6875 C 0.875 -7.3125 1.050781 -7.859375 1.40625 -8.328125 C 1.769531 -8.796875 2.28125 -9.160156 2.9375 -9.421875 C 3.59375 -9.679688 4.363281 -9.8125 5.25 -9.8125 C 5.476562 -9.8125 5.742188 -9.789062 6.046875 -9.75 C 6.347656 -9.707031 6.644531 -9.648438 6.9375 -9.578125 C 7.238281 -9.503906 7.492188 -9.421875 7.703125 -9.328125 L 7.953125 -6.71875 L 6.703125 -6.65625 L 6.125 -8.40625 C 5.820312 -8.539062 5.472656 -8.609375 5.078125 -8.609375 C 4.722656 -8.609375 4.40625 -8.507812 4.125 -8.3125 C 3.851562 -8.125 3.71875 -7.832031 3.71875 -7.4375 C 3.71875 -7.101562 3.832031 -6.832031 4.0625 -6.625 C 4.289062 -6.414062 4.582031 -6.234375 4.9375 -6.078125 C 5.300781 -5.921875 5.6875 -5.765625 6.09375 -5.609375 C 6.507812 -5.460938 6.894531 -5.28125 7.25 -5.0625 C 7.613281 -4.84375 7.910156 -4.5625 8.140625 -4.21875 C 8.367188 -3.875 8.484375 -3.4375 8.484375 -2.90625 C 8.484375 -2.3125 8.296875 -1.785156 7.921875 -1.328125 C 7.554688 -0.867188 7.039062 -0.507812 6.375 -0.25 C 5.707031 0.0078125 4.921875 0.140625 4.015625 0.140625 Z M 4.015625 0.140625 "/></g></g></g></svg>