<svg xmlns="http://www.w3.org/2000/svg" xmlns:xlink="http://www.w3.org/1999/xlink" width="500" zoomAndPan="magnify" viewBox="0 0 375 374.999991" height="500" preserveAspectRatio="xMidYMid meet" version="1.0"><defs><g/><clipPath id="9df3f9cdbf"><path d="M 126 181 L 250 181 L 250 226.679688 L 126 226.679688 Z M 126 181 " clip-rule="nonzero"/></clipPath><clipPath id="d94ba9f6d4"><path d="M 126 47.066406 L 250 47.066406 L 250 143 L 126 143 Z M 126 47.066406 " clip-rule="nonzero"/></clipPath><clipPath id="47392289a2"><path d="M 118 180 L 244 180 L 244 226.675781 L 118 226.675781 Z M 118 180 " clip-rule="nonzero"/></clipPath><clipPath id="99afd0b7da"><path d="M 118 43.769531 L 244 43.769531 L 244 141 L 118 141 Z M 118 43.769531 " clip-rule="nonzero"/></clipPath><clipPath id="8c0954f18a"><path d="M 211 93 L 212 93 L 212 94 L 211 94 Z M 211 93 " clip-rule="nonzero"/></clipPath><clipPath id="8216546dcf"><path d="M 142.855469 62.222656 L 235.890625 65.761719 L 232.355469 158.792969 L 139.320312 155.257812 Z M 142.855469 62.222656 " clip-rule="nonzero"/></clipPath><clipPath id="a2c4a61a0b"><path d="M 142.855469 62.222656 L 235.890625 65.761719 L 232.355469 158.792969 L 139.320312 155.257812 Z M 142.855469 62.222656 " clip-rule="nonzero"/></clipPath><clipPath id="3807242cd3"><path d="M 142.855469 62.222656 L 235.890625 65.761719 L 232.355469 158.792969 L 139.320312 155.257812 Z M 142.855469 62.222656 " clip-rule="nonzero"/></clipPath><clipPath id="86f54b04b5"><path d="M 164 88 L 234 88 L 234 157 L 164 157 Z M 164 88 " clip-rule="nonzero"/></clipPath><clipPath id="558d93b593"><path d="M 142.855469 62.222656 L 235.890625 65.761719 L 232.355469 158.792969 L 139.320312 155.257812 Z M 142.855469 62.222656 " clip-rule="nonzero"/></clipPath><clipPath id="949f15f75f"><path d="M 142.855469 62.222656 L 235.890625 65.761719 L 232.355469 158.792969 L 139.320312 155.257812 Z M 142.855469 62.222656 " clip-rule="nonzero"/></clipPath><clipPath id="4e482dd51b"><path d="M 142.855469 62.222656 L 235.890625 65.761719 L 232.355469 158.792969 L 139.320312 155.257812 Z M 142.855469 62.222656 " clip-rule="nonzero"/></clipPath><clipPath id="efd4a8a9f2"><path d="M 141 64 L 211 64 L 211 132 L 141 132 Z M 141 64 " clip-rule="nonzero"/></clipPath><clipPath id="a9853dde68"><path d="M 142.855469 62.222656 L 235.890625 65.761719 L 232.355469 158.792969 L 139.320312 155.257812 Z M 142.855469 62.222656 " clip-rule="nonzero"/></clipPath><clipPath id="f6256fe5e4"><path d="M 142.855469 62.222656 L 235.890625 65.761719 L 232.355469 158.792969 L 139.320312 155.257812 Z M 142.855469 62.222656 " clip-rule="nonzero"/></clipPath><clipPath id="a33853319b"><path d="M 142.855469 62.222656 L 235.890625 65.761719 L 232.355469 158.792969 L 139.320312 155.257812 Z M 142.855469 62.222656 " clip-rule="nonzero"/></clipPath></defs><rect x="-37.5" width="450" fill="#ffffff" y="-37.499999" height="449.999989" fill-opacity="1"/><rect x="-37.5" width="450" fill="#ffffff" y="-37.499999" height="449.999989" fill-opacity="1"/><rect x="-37.5" width="450" fill="#071d3a" y="-37.499999" height="449.999989" fill-opacity="1"/><path fill="#f9b144" d="M 166.972656 83.605469 L 212.730469 83.605469 L 212.730469 79.523438 L 166.972656 79.523438 L 166.972656 83.605469 " fill-opacity="1" fill-rule="nonzero"/><path fill="#f9b144" d="M 212.730469 101.566406 L 166.972656 101.566406 L 166.972656 105.652344 L 212.730469 105.652344 L 212.730469 101.566406 " fill-opacity="1" fill-rule="nonzero"/><path fill="#f9b144" d="M 212.730469 123.625 L 166.972656 123.625 L 166.972656 127.710938 L 212.730469 127.710938 L 212.730469 123.625 " fill-opacity="1" fill-rule="nonzero"/><path fill="#f9b144" d="M 212.730469 145.671875 L 166.972656 145.671875 L 166.972656 149.753906 L 212.730469 149.753906 L 212.730469 145.671875 " fill-opacity="1" fill-rule="nonzero"/><path fill="#f9b144" d="M 212.730469 167.730469 L 166.972656 167.730469 L 166.972656 171.8125 L 212.730469 171.8125 L 212.730469 167.730469 " fill-opacity="1" fill-rule="nonzero"/><path fill="#f9b144" d="M 212.730469 189.773438 L 166.972656 189.773438 L 166.972656 193.859375 L 212.730469 193.859375 L 212.730469 189.773438 " fill-opacity="1" fill-rule="nonzero"/><path fill="#071d3a" d="M 126.65625 94.464844 C 129.03125 94.566406 131.335938 94.808594 133.457031 95.21875 L 133.457031 80.136719 C 131.605469 79.664062 129.332031 79.296875 126.65625 79.179688 L 126.65625 94.464844 " fill-opacity="1" fill-rule="nonzero"/><path fill="#071d3a" d="M 126.65625 125.53125 C 129.03125 125.632812 131.335938 125.875 133.457031 126.289062 L 133.457031 111.203125 C 131.605469 110.734375 129.332031 110.363281 126.65625 110.234375 L 126.65625 125.53125 " fill-opacity="1" fill-rule="nonzero"/><path fill="#071d3a" d="M 126.65625 187.667969 C 129.03125 187.753906 131.335938 188.007812 133.457031 188.421875 L 133.457031 173.320312 C 131.605469 172.851562 129.332031 172.484375 126.65625 172.367188 L 126.65625 187.667969 " fill-opacity="1" fill-rule="nonzero"/><path fill="#071d3a" d="M 126.65625 156.601562 C 129.03125 156.6875 131.335938 156.941406 133.457031 157.355469 L 133.457031 142.269531 C 131.605469 141.800781 129.332031 141.414062 126.65625 141.300781 L 126.65625 156.601562 " fill-opacity="1" fill-rule="nonzero"/><g clip-path="url(#9df3f9cdbf)"><path fill="#071d3a" d="M 242.195312 219.675781 L 133.457031 219.675781 L 133.457031 204.390625 C 131.605469 203.917969 129.332031 203.550781 126.65625 203.4375 L 126.65625 226.476562 L 249.007812 226.476562 L 249.007812 181.761719 C 246.605469 183.796875 244.328125 185.660156 242.195312 187.324219 L 242.195312 219.675781 " fill-opacity="1" fill-rule="nonzero"/></g><g clip-path="url(#d94ba9f6d4)"><path fill="#071d3a" d="M 249.007812 46.90625 L 126.65625 46.90625 L 126.65625 63.414062 C 129.03125 63.5 131.335938 63.753906 133.457031 64.167969 L 133.457031 53.707031 L 242.195312 53.707031 L 242.195312 142.355469 C 244.328125 140.175781 246.605469 137.957031 249.007812 135.738281 L 249.007812 46.90625 " fill-opacity="1" fill-rule="nonzero"/></g><path fill="#071d3a" d="M 109.253906 74.085938 C 109.253906 70.441406 128.890625 66.773438 138.390625 72.222656 L 138.390625 75.339844 C 130.214844 71.9375 116.234375 72.292969 109.253906 76.179688 Z M 138.390625 79.835938 L 138.390625 83.976562 L 148.585938 83.976562 L 148.585938 65.148438 L 138.390625 65.148438 L 138.390625 67.710938 C 127.113281 63.042969 105.1875 65.5625 105.1875 74.085938 L 105.1875 81.699219 L 109.253906 81.699219 C 109.253906 77.601562 129.503906 74.742188 138.390625 79.835938 " fill-opacity="1" fill-rule="nonzero"/><path fill="#071d3a" d="M 109.253906 105.140625 C 109.253906 101.511719 128.890625 97.839844 138.390625 103.289062 L 138.390625 106.390625 C 130.214844 103.003906 116.234375 103.359375 109.253906 107.230469 Z M 138.390625 110.902344 L 138.390625 115.03125 L 148.585938 115.03125 L 148.585938 96.214844 L 138.390625 96.214844 L 138.390625 98.777344 C 127.113281 94.097656 105.1875 96.628906 105.1875 105.140625 L 105.1875 112.753906 L 109.253906 112.753906 C 109.253906 108.683594 129.503906 105.808594 138.390625 110.902344 " fill-opacity="1" fill-rule="nonzero"/><path fill="#071d3a" d="M 109.253906 136.207031 C 109.253906 132.550781 128.960938 128.949219 138.390625 134.34375 L 138.390625 137.460938 C 130.285156 134.101562 116.292969 134.398438 109.253906 138.296875 Z M 138.390625 141.96875 L 138.390625 146.097656 L 148.585938 146.097656 L 148.585938 127.285156 L 138.390625 127.285156 L 138.390625 129.84375 C 127.128906 125.175781 105.1875 127.683594 105.1875 136.207031 L 105.1875 143.820312 L 109.253906 143.820312 C 109.253906 139.75 129.503906 136.875 138.390625 141.96875 " fill-opacity="1" fill-rule="nonzero"/><path fill="#071d3a" d="M 109.253906 167.273438 C 109.253906 163.472656 129.203125 160.15625 138.390625 165.410156 L 138.390625 168.527344 C 130.214844 165.140625 116.234375 165.480469 109.253906 169.367188 Z M 138.390625 173.023438 L 138.390625 177.164062 L 148.585938 177.164062 L 148.585938 158.351562 L 138.390625 158.351562 L 138.390625 160.914062 C 127.140625 156.230469 105.1875 158.734375 105.1875 167.273438 L 105.1875 174.886719 L 109.253906 174.886719 C 109.253906 170.804688 129.503906 167.941406 138.390625 173.023438 " fill-opacity="1" fill-rule="nonzero"/><path fill="#071d3a" d="M 109.253906 200.433594 L 109.253906 198.328125 C 109.253906 194.257812 129.503906 191.382812 138.390625 196.476562 L 138.390625 199.59375 C 130.199219 196.191406 116.21875 196.546875 109.253906 200.433594 Z M 138.390625 204.089844 L 138.390625 208.230469 L 148.585938 208.230469 L 148.585938 189.402344 L 138.390625 189.402344 L 138.390625 191.964844 C 127.097656 187.296875 105.1875 189.816406 105.1875 198.328125 L 105.1875 205.953125 L 109.253906 205.953125 C 109.253906 201.871094 129.503906 198.996094 138.390625 204.089844 " fill-opacity="1" fill-rule="nonzero"/><path fill="#f9b144" d="M 337.171875 80.816406 C 314.476562 110.546875 316.210938 98.480469 275.613281 144.160156 C 275.042969 144.800781 274.0625 144.832031 273.453125 144.234375 L 263.824219 134.585938 C 263.214844 133.988281 263.242188 133.003906 263.882812 132.433594 C 309.515625 91.820312 297.46875 93.539062 327.191406 70.828125 L 337.171875 80.816406 " fill-opacity="1" fill-rule="nonzero"/><path fill="#f9b144" d="M 236.28125 181.179688 C 245.453125 174.433594 258.378906 163.601562 270.339844 148.871094 C 270.636719 148.503906 270.609375 147.960938 270.265625 147.632812 C 260.753906 138.113281 260.242188 136.859375 259.1875 137.714844 C 244.472656 149.667969 233.636719 162.605469 226.910156 171.785156 C 228.148438 176.28125 231.6875 179.898438 236.28125 181.179688 " fill-opacity="1" fill-rule="nonzero"/><path fill="#f9b144" d="M 225.6875 173.464844 C 221.066406 179.910156 218.71875 184.136719 218.71875 184.136719 L 223.953125 189.375 C 223.953125 189.375 228.160156 187.011719 234.617188 182.386719 C 230.507812 180.851562 227.222656 177.578125 225.6875 173.464844 " fill-opacity="1" fill-rule="nonzero"/><path fill="#f9b144" d="M 333.929688 74.058594 C 327.304688 67.425781 323.804688 70.941406 330.433594 77.574219 C 337.058594 84.207031 340.558594 80.703125 333.929688 74.058594 " fill-opacity="1" fill-rule="nonzero"/><path fill="#f9b144" d="M 219.984375 183.597656 C 219.925781 183.695312 215.347656 192.71875 215.449219 192.675781 L 224.476562 188.109375 L 219.984375 183.597656 " fill-opacity="1" fill-rule="nonzero"/><path fill="#f9b144" d="M 337.828125 91.421875 C 340.1875 93.769531 322.441406 113.847656 295.492188 130.871094 C 293.746094 131.980469 291.710938 130.359375 292.324219 128.492188 C 292.917969 126.6875 294.511719 119.585938 301.335938 122.003906 C 315.472656 112.167969 324.191406 103.402344 329.136719 97.582031 L 324.785156 93.226562 L 332.210938 85.800781 L 337.828125 91.421875 " fill-opacity="1" fill-rule="nonzero"/><path fill="#071d3a" d="M 159.53125 80.980469 L 206.242188 80.980469 L 206.242188 76.820312 L 159.53125 76.820312 L 159.53125 80.980469 " fill-opacity="1" fill-rule="nonzero"/><path fill="#071d3a" d="M 206.242188 99.269531 L 159.53125 99.269531 L 159.53125 103.429688 L 206.242188 103.429688 L 206.242188 99.269531 " fill-opacity="1" fill-rule="nonzero"/><path fill="#071d3a" d="M 206.242188 121.730469 L 159.53125 121.730469 L 159.53125 125.890625 L 206.242188 125.890625 L 206.242188 121.730469 " fill-opacity="1" fill-rule="nonzero"/><path fill="#071d3a" d="M 206.242188 144.179688 L 159.53125 144.179688 L 159.53125 148.339844 L 206.242188 148.339844 L 206.242188 144.179688 " fill-opacity="1" fill-rule="nonzero"/><path fill="#071d3a" d="M 206.242188 166.644531 L 159.53125 166.644531 L 159.53125 170.804688 L 206.242188 170.804688 L 206.242188 166.644531 " fill-opacity="1" fill-rule="nonzero"/><path fill="#071d3a" d="M 206.242188 189.09375 L 159.53125 189.09375 L 159.53125 193.253906 L 206.242188 193.253906 L 206.242188 189.09375 " fill-opacity="1" fill-rule="nonzero"/><path fill="#f9b144" d="M 118.382812 92.039062 C 120.804688 92.136719 123.15625 92.386719 125.320312 92.804688 L 125.320312 77.441406 C 123.433594 76.964844 121.109375 76.589844 118.382812 76.472656 L 118.382812 92.039062 " fill-opacity="1" fill-rule="nonzero"/><path fill="#f9b144" d="M 118.382812 123.675781 C 120.804688 123.777344 123.15625 124.023438 125.320312 124.441406 L 125.320312 109.082031 C 123.433594 108.601562 121.109375 108.226562 118.382812 108.09375 L 118.382812 123.675781 " fill-opacity="1" fill-rule="nonzero"/><path fill="#f9b144" d="M 118.382812 186.949219 C 120.804688 187.035156 123.15625 187.296875 125.320312 187.71875 L 125.320312 172.339844 C 123.433594 171.863281 121.109375 171.484375 118.382812 171.371094 L 118.382812 186.949219 " fill-opacity="1" fill-rule="nonzero"/><path fill="#f9b144" d="M 118.382812 155.3125 C 120.804688 155.398438 123.15625 155.660156 125.320312 156.078125 L 125.320312 140.71875 C 123.433594 140.238281 121.109375 139.847656 118.382812 139.730469 L 118.382812 155.3125 " fill-opacity="1" fill-rule="nonzero"/><g clip-path="url(#47392289a2)"><path fill="#f9b144" d="M 236.316406 219.542969 L 125.320312 219.542969 L 125.320312 203.976562 C 123.433594 203.5 121.109375 203.121094 118.382812 203.007812 L 118.382812 226.46875 L 243.269531 226.46875 L 243.269531 180.933594 C 240.816406 183.007812 238.492188 184.90625 236.316406 186.601562 L 236.316406 219.542969 " fill-opacity="1" fill-rule="nonzero"/></g><g clip-path="url(#99afd0b7da)"><path fill="#f9b144" d="M 243.269531 43.601562 L 118.382812 43.601562 L 118.382812 60.414062 C 120.804688 60.5 123.15625 60.761719 125.320312 61.183594 L 125.320312 50.53125 L 236.316406 50.53125 L 236.316406 140.804688 C 238.492188 138.585938 240.816406 136.328125 243.269531 134.066406 L 243.269531 43.601562 " fill-opacity="1" fill-rule="nonzero"/></g><path fill="#f9b144" d="M 100.617188 71.285156 C 100.617188 67.574219 120.660156 63.835938 130.355469 69.386719 L 130.355469 72.558594 C 122.011719 69.09375 107.742188 69.457031 100.617188 73.414062 Z M 130.355469 77.140625 L 130.355469 81.355469 L 140.765625 81.355469 L 140.765625 62.183594 L 130.355469 62.183594 L 130.355469 64.792969 C 118.847656 60.039062 96.464844 62.601562 96.464844 71.285156 L 96.464844 79.039062 L 100.617188 79.039062 C 100.617188 74.863281 121.285156 71.949219 130.355469 77.140625 " fill-opacity="1" fill-rule="nonzero"/><path fill="#f9b144" d="M 100.617188 102.90625 C 100.617188 99.210938 120.660156 95.472656 130.355469 101.023438 L 130.355469 104.183594 C 122.011719 100.734375 107.742188 101.09375 100.617188 105.035156 Z M 130.355469 108.777344 L 130.355469 112.980469 L 140.765625 112.980469 L 140.765625 93.820312 L 130.355469 93.820312 L 130.355469 96.429688 C 118.847656 91.660156 96.464844 94.238281 96.464844 102.90625 L 96.464844 110.660156 L 100.617188 110.660156 C 100.617188 106.515625 121.285156 103.585938 130.355469 108.777344 " fill-opacity="1" fill-rule="nonzero"/><path fill="#f9b144" d="M 100.617188 134.542969 C 100.617188 130.820312 120.734375 127.152344 130.355469 132.644531 L 130.355469 135.820312 C 122.082031 132.398438 107.800781 132.703125 100.617188 136.675781 Z M 130.355469 140.414062 L 130.355469 144.617188 L 140.765625 144.617188 L 140.765625 125.457031 L 130.355469 125.457031 L 130.355469 128.066406 C 118.859375 123.3125 96.464844 125.863281 96.464844 134.542969 L 96.464844 142.296875 L 100.617188 142.296875 C 100.617188 138.152344 121.285156 135.226562 130.355469 140.414062 " fill-opacity="1" fill-rule="nonzero"/><path fill="#f9b144" d="M 100.617188 166.179688 C 100.617188 162.3125 120.980469 158.933594 130.355469 164.28125 L 130.355469 167.457031 C 122.011719 164.007812 107.742188 164.355469 100.617188 168.3125 Z M 130.355469 172.035156 L 130.355469 176.253906 L 140.765625 176.253906 L 140.765625 157.09375 L 130.355469 157.09375 L 130.355469 159.703125 C 118.875 154.933594 96.464844 157.484375 96.464844 166.179688 L 96.464844 173.933594 L 100.617188 173.933594 C 100.617188 169.773438 121.285156 166.863281 130.355469 172.035156 " fill-opacity="1" fill-rule="nonzero"/><path fill="#f9b144" d="M 100.617188 199.949219 L 100.617188 197.804688 C 100.617188 193.660156 121.285156 190.730469 130.355469 195.917969 L 130.355469 199.09375 C 121.996094 195.628906 107.726562 195.992188 100.617188 199.949219 Z M 130.355469 203.671875 L 130.355469 207.890625 L 140.765625 207.890625 L 140.765625 188.71875 L 130.355469 188.71875 L 130.355469 191.324219 C 118.832031 186.570312 96.464844 189.136719 96.464844 197.804688 L 96.464844 205.570312 L 100.617188 205.570312 C 100.617188 201.414062 121.285156 198.484375 130.355469 203.671875 " fill-opacity="1" fill-rule="nonzero"/><path fill="#071d3a" d="M 333.261719 78.140625 C 310.097656 108.414062 311.867188 96.125 270.425781 142.644531 C 269.847656 143.296875 268.84375 143.328125 268.222656 142.71875 L 258.394531 132.890625 C 257.769531 132.28125 257.800781 131.28125 258.453125 130.703125 C 305.03125 89.339844 292.738281 91.09375 323.074219 67.964844 L 333.261719 78.140625 " fill-opacity="1" fill-rule="nonzero"/><path fill="#071d3a" d="M 230.277344 180.339844 C 239.640625 173.472656 252.835938 162.441406 265.042969 147.441406 C 265.347656 147.066406 265.316406 146.515625 264.96875 146.179688 C 255.257812 136.484375 254.734375 135.210938 253.664062 136.078125 C 238.640625 148.253906 227.578125 161.425781 220.714844 170.773438 C 221.976562 175.355469 225.589844 179.035156 230.277344 180.339844 " fill-opacity="1" fill-rule="nonzero"/><path fill="#071d3a" d="M 219.464844 172.484375 C 214.746094 179.050781 212.351562 183.355469 212.351562 183.355469 L 217.695312 188.6875 C 217.695312 188.6875 221.992188 186.28125 228.582031 181.570312 C 224.386719 180.007812 221.03125 176.671875 219.464844 172.484375 " fill-opacity="1" fill-rule="nonzero"/><path fill="#071d3a" d="M 329.953125 71.253906 C 323.1875 64.5 319.617188 68.082031 326.382812 74.835938 C 333.148438 81.589844 336.71875 78.023438 329.953125 71.253906 " fill-opacity="1" fill-rule="nonzero"/><path fill="#071d3a" d="M 213.644531 182.804688 C 213.585938 182.90625 208.914062 192.09375 209.015625 192.050781 L 218.230469 187.398438 L 213.644531 182.804688 " fill-opacity="1" fill-rule="nonzero"/><path fill="#071d3a" d="M 333.929688 88.9375 C 336.339844 91.328125 318.226562 111.777344 290.71875 129.109375 C 288.933594 130.238281 286.859375 128.585938 287.480469 126.6875 C 288.09375 124.847656 289.71875 117.617188 296.683594 120.082031 C 311.113281 110.066406 320.011719 101.136719 325.0625 95.210938 L 320.621094 90.777344 L 328.195312 83.210938 L 333.929688 88.9375 " fill-opacity="1" fill-rule="nonzero"/><g clip-path="url(#8c0954f18a)"><g clip-path="url(#8216546dcf)"><g clip-path="url(#a2c4a61a0b)"><g clip-path="url(#3807242cd3)"><path fill="#000000" d="M 211.953125 93.441406 L 211.957031 93.441406 L 211.957031 93.425781 Z M 211.953125 93.441406 " fill-opacity="1" fill-rule="nonzero"/></g></g></g></g><g clip-path="url(#86f54b04b5)"><g clip-path="url(#558d93b593)"><g clip-path="url(#949f15f75f)"><g clip-path="url(#4e482dd51b)"><path fill="#f2bb30" d="M 219.890625 133.582031 C 226.269531 133.824219 228.796875 129.464844 231.265625 122.882812 C 233.824219 116.101562 233.976562 109.488281 232.113281 100.605469 C 230.773438 94.210938 227.964844 89.316406 221.582031 89.074219 L 213.359375 88.761719 L 212.992188 98.488281 C 212.703125 106.035156 206.0625 112.152344 198.765625 111.875 L 176.855469 111.039062 C 170.867188 110.8125 165.707031 115.75 165.480469 121.761719 L 164.6875 142.640625 C 164.460938 148.589844 169.496094 152.273438 175.21875 154.195312 C 182.070312 156.488281 188.726562 157.109375 197.121094 155.027344 C 202.699219 153.636719 208.257812 150.621094 208.496094 144.308594 L 208.816406 135.957031 L 186.925781 135.125 L 187.03125 132.339844 L 219.890625 133.585938 Z M 199.023438 141.152344 C 201.296875 141.238281 203.078125 143.175781 202.988281 145.476562 C 202.902344 147.792969 200.984375 149.589844 198.707031 149.503906 C 196.449219 149.417969 194.65625 147.457031 194.742188 145.160156 C 194.855469 142.84375 196.773438 141.066406 199.023438 141.152344 Z M 199.023438 141.152344 " fill-opacity="1" fill-rule="nonzero"/></g></g></g></g><g clip-path="url(#efd4a8a9f2)"><g clip-path="url(#a9853dde68)"><g clip-path="url(#f6256fe5e4)"><g clip-path="url(#a33853319b)"><path fill="#35668f" d="M 153.828125 131.078125 L 161.355469 131.363281 L 161.734375 121.351562 C 162.011719 114.109375 168.507812 107.964844 175.949219 108.25 L 197.855469 109.082031 C 203.945312 109.3125 209 104.476562 209.230469 98.359375 L 210.027344 77.464844 C 210.25 71.519531 205.417969 66.871094 199.503906 65.648438 C 192.207031 64.152344 184.226562 63.917969 177.601562 64.835938 L 177.605469 64.832031 C 168.269531 66.121094 166.464844 69.480469 166.222656 75.816406 L 165.90625 84.164062 L 187.832031 85 L 187.726562 87.789062 L 157.570312 86.644531 C 151.191406 86.402344 145.464844 90.023438 143.449219 97.242188 C 141.121094 105.515625 140.84375 110.71875 142.601562 119.515625 C 143.910156 126.054688 147.453125 130.835938 153.828125 131.078125 Z M 175.691406 78.949219 C 173.417969 78.863281 171.640625 76.925781 171.726562 74.628906 C 171.84375 72.308594 173.734375 70.515625 176.007812 70.601562 C 178.269531 70.6875 180.0625 72.640625 179.972656 74.941406 C 179.886719 77.242188 177.96875 79.039062 175.691406 78.949219 Z M 175.691406 78.949219 " fill-opacity="1" fill-rule="nonzero"/></g></g></g></g><g fill="#f9b144" fill-opacity="1"><g transform="translate(40.299095, 272.960493)"><g><path d="M 13.921875 0.34375 C 11.523438 0.34375 9.398438 -0.0859375 7.546875 -0.953125 C 5.691406 -1.816406 4.242188 -3.054688 3.203125 -4.671875 C 2.171875 -6.285156 1.65625 -8.234375 1.65625 -10.515625 C 1.65625 -12.359375 1.976562 -14.015625 2.625 -15.484375 C 3.28125 -16.953125 4.191406 -18.195312 5.359375 -19.21875 C 6.535156 -20.238281 7.929688 -21.019531 9.546875 -21.5625 C 11.160156 -22.101562 12.929688 -22.375 14.859375 -22.375 C 16.015625 -22.375 17.160156 -22.253906 18.296875 -22.015625 C 19.429688 -21.773438 20.378906 -21.46875 21.140625 -21.09375 L 21.328125 -15.765625 L 18.953125 -15.6875 L 17.796875 -19.140625 C 17.296875 -19.421875 16.742188 -19.613281 16.140625 -19.71875 C 15.535156 -19.832031 14.984375 -19.890625 14.484375 -19.890625 C 13.035156 -19.890625 11.789062 -19.550781 10.75 -18.875 C 9.71875 -18.207031 8.9375 -17.242188 8.40625 -15.984375 C 7.882812 -14.734375 7.625 -13.257812 7.625 -11.5625 C 7.625 -9.632812 7.945312 -7.96875 8.59375 -6.5625 C 9.25 -5.164062 10.125 -4.09375 11.21875 -3.34375 C 12.320312 -2.59375 13.535156 -2.21875 14.859375 -2.21875 C 15.234375 -2.21875 15.664062 -2.265625 16.15625 -2.359375 C 16.644531 -2.460938 17.078125 -2.628906 17.453125 -2.859375 L 16.671875 -0.828125 L 16.671875 -4.8125 C 16.671875 -5.332031 16.65625 -5.890625 16.625 -6.484375 C 16.601562 -7.085938 16.566406 -7.550781 16.515625 -7.875 L 13.84375 -8.453125 L 13.96875 -10.390625 L 23.390625 -10.390625 L 23.5 -8.515625 L 21.625 -7.921875 C 21.59375 -7.671875 21.582031 -7.28125 21.59375 -6.75 C 21.613281 -6.226562 21.625 -5.679688 21.625 -5.109375 C 21.625 -4.679688 21.632812 -4.191406 21.65625 -3.640625 C 21.6875 -3.085938 21.710938 -2.4375 21.734375 -1.6875 C 20.628906 -1.007812 19.394531 -0.5 18.03125 -0.15625 C 16.664062 0.175781 15.296875 0.34375 13.921875 0.34375 Z M 13.921875 0.34375 "/></g></g></g><g fill="#f9b144" fill-opacity="1"><g transform="translate(67.151375, 272.960493)"><g><path d="M 19.515625 0.21875 C 18.816406 0.175781 17.972656 0.128906 16.984375 0.078125 C 15.992188 0.0234375 15.097656 0 14.296875 0 L 1.390625 0 L 1.28125 -1.875 L 3.671875 -2.484375 C 3.722656 -2.609375 3.765625 -2.929688 3.796875 -3.453125 C 3.835938 -3.972656 3.867188 -4.648438 3.890625 -5.484375 C 3.921875 -6.328125 3.9375 -7.253906 3.9375 -8.265625 L 3.9375 -13.734375 C 3.9375 -14.785156 3.921875 -15.726562 3.890625 -16.5625 C 3.867188 -17.40625 3.835938 -18.085938 3.796875 -18.609375 C 3.765625 -19.140625 3.722656 -19.457031 3.671875 -19.5625 L 1.28125 -20.15625 L 1.390625 -22.03125 L 12.953125 -22.03125 C 13.453125 -22.03125 14.054688 -22.035156 14.765625 -22.046875 C 15.484375 -22.066406 16.1875 -22.09375 16.875 -22.125 C 17.5625 -22.164062 18.144531 -22.195312 18.625 -22.21875 L 19.625 -16.671875 L 17.453125 -16.359375 L 16.0625 -19.671875 C 15.738281 -19.742188 15.445312 -19.789062 15.1875 -19.8125 C 14.925781 -19.84375 14.644531 -19.859375 14.34375 -19.859375 L 11.484375 -19.859375 C 11.003906 -19.859375 10.546875 -19.847656 10.109375 -19.828125 C 9.671875 -19.816406 9.316406 -19.789062 9.046875 -19.75 C 9.046875 -19.539062 9.039062 -19.238281 9.03125 -18.84375 C 9.019531 -18.445312 9.003906 -17.929688 8.984375 -17.296875 C 8.972656 -16.671875 8.96875 -15.9375 8.96875 -15.09375 L 8.96875 -7.203125 C 8.96875 -6.398438 8.972656 -5.6875 8.984375 -5.0625 C 9.003906 -4.4375 9.019531 -3.914062 9.03125 -3.5 C 9.039062 -3.09375 9.046875 -2.773438 9.046875 -2.546875 C 9.492188 -2.472656 9.96875 -2.421875 10.46875 -2.390625 C 10.96875 -2.367188 11.59375 -2.359375 12.34375 -2.359375 L 14.34375 -2.359375 C 14.988281 -2.359375 15.46875 -2.363281 15.78125 -2.375 C 16.09375 -2.394531 16.328125 -2.414062 16.484375 -2.4375 C 16.648438 -2.46875 16.820312 -2.492188 17 -2.515625 L 19.0625 -6.265625 L 21.203125 -5.859375 Z M 14.75 -7.5 L 14.375 -10.015625 C 14.195312 -10.046875 13.921875 -10.066406 13.546875 -10.078125 C 13.171875 -10.085938 12.734375 -10.09375 12.234375 -10.09375 L 10.25 -10.09375 C 9.820312 -10.09375 9.414062 -10.078125 9.03125 -10.046875 C 8.644531 -10.023438 8.347656 -10.003906 8.140625 -9.984375 L 8.140625 -12.65625 C 8.347656 -12.625 8.644531 -12.59375 9.03125 -12.5625 C 9.414062 -12.539062 9.820312 -12.53125 10.25 -12.53125 L 12.234375 -12.53125 C 12.734375 -12.53125 13.171875 -12.535156 13.546875 -12.546875 C 13.921875 -12.566406 14.195312 -12.578125 14.375 -12.578125 L 14.75 -15.09375 L 16.8125 -15.09375 L 16.8125 -7.5 Z M 14.75 -7.5 "/></g></g></g><g fill="#f9b144" fill-opacity="1"><g transform="translate(91.075575, 272.960493)"><g><path d="M -0.03125 0 L -0.15625 -1.875 L 1.796875 -2.484375 L 9.421875 -20.953125 L 12.578125 -22.703125 L 21.203125 -2.484375 L 23.15625 -1.875 L 23.046875 0 L 12.984375 0 L 12.875 -1.875 L 15.28125 -2.484375 L 13.25 -7.3125 L 12.84375 -8.59375 L 9.078125 -17.453125 L 10.171875 -17.15625 L 7.0625 -8.703125 L 6.71875 -7.578125 L 4.921875 -2.484375 L 7.3125 -1.875 L 7.203125 0 Z M 5.8125 -6.375 L 5.8125 -8.9375 C 6.3125 -8.90625 6.875 -8.867188 7.5 -8.828125 C 8.132812 -8.796875 8.972656 -8.78125 10.015625 -8.78125 C 11.023438 -8.78125 11.859375 -8.796875 12.515625 -8.828125 C 13.179688 -8.867188 13.75 -8.90625 14.21875 -8.9375 L 14.21875 -6.421875 C 13.75 -6.421875 13.175781 -6.429688 12.5 -6.453125 C 11.820312 -6.484375 10.992188 -6.5 10.015625 -6.5 C 8.992188 -6.5 8.15625 -6.484375 7.5 -6.453125 C 6.851562 -6.429688 6.289062 -6.40625 5.8125 -6.375 Z M 5.8125 -6.375 "/></g></g></g><g fill="#f9b144" fill-opacity="1"><g transform="translate(116.013345, 272.960493)"><g><path d="M 1.34375 -22.03125 L 11.40625 -22.03125 L 11.53125 -20.15625 L 9.125 -19.515625 C 9.09375 -19.265625 9.066406 -18.867188 9.046875 -18.328125 C 9.023438 -17.796875 9 -17.144531 8.96875 -16.375 C 8.945312 -15.613281 8.9375 -14.734375 8.9375 -13.734375 L 8.9375 -9.875 C 8.9375 -8.414062 9.140625 -7.1875 9.546875 -6.1875 C 9.960938 -5.1875 10.570312 -4.4375 11.375 -3.9375 C 12.175781 -3.4375 13.148438 -3.1875 14.296875 -3.1875 C 15.453125 -3.1875 16.410156 -3.429688 17.171875 -3.921875 C 17.929688 -4.410156 18.5 -5.15625 18.875 -6.15625 C 19.25 -7.15625 19.4375 -8.40625 19.4375 -9.90625 L 19.4375 -13.0625 C 19.4375 -14.21875 19.425781 -15.269531 19.40625 -16.21875 C 19.382812 -17.164062 19.351562 -17.929688 19.3125 -18.515625 C 19.269531 -19.109375 19.226562 -19.441406 19.1875 -19.515625 L 16.546875 -20.15625 L 16.671875 -22.03125 L 25.03125 -22.03125 L 25.15625 -20.15625 L 22.75 -19.515625 C 22.71875 -19.441406 22.679688 -19.109375 22.640625 -18.515625 C 22.609375 -17.929688 22.578125 -17.164062 22.546875 -16.21875 C 22.523438 -15.269531 22.515625 -14.21875 22.515625 -13.0625 L 22.515625 -9.265625 C 22.515625 -7.296875 22.148438 -5.585938 21.421875 -4.140625 C 20.703125 -2.703125 19.671875 -1.59375 18.328125 -0.8125 C 16.992188 -0.0390625 15.414062 0.34375 13.59375 0.34375 C 10.457031 0.34375 8.046875 -0.488281 6.359375 -2.15625 C 4.671875 -3.820312 3.828125 -6.179688 3.828125 -9.234375 L 3.828125 -13.734375 C 3.828125 -14.785156 3.8125 -15.738281 3.78125 -16.59375 C 3.757812 -17.445312 3.734375 -18.128906 3.703125 -18.640625 C 3.679688 -19.148438 3.660156 -19.441406 3.640625 -19.515625 L 1.234375 -20.15625 Z M 1.34375 -22.03125 "/></g></g></g><g fill="#f9b144" fill-opacity="1"><g transform="translate(144.442281, 272.960493)"><g><path d="M 22.671875 0 L 12.53125 0 L 12.421875 -1.875 L 14.75 -2.515625 L 10.515625 -8.671875 L 8.96875 -10.765625 L 2.859375 -19.5625 L 0.9375 -20.15625 L 1.046875 -22.03125 L 10.65625 -22.03125 L 10.765625 -20.15625 L 8.9375 -19.5625 L 12.34375 -14.671875 L 13.78125 -12.609375 L 20.875 -2.515625 L 22.78125 -1.875 Z M 15.734375 -19.5625 L 13.78125 -20.15625 L 13.890625 -22.03125 L 21.09375 -22.03125 L 21.203125 -20.15625 L 19.296875 -19.5625 L 13.78125 -12.609375 L 10.515625 -8.671875 L 6.265625 -2.515625 L 8.703125 -1.875 L 8.59375 0 L 0.90625 0 L 0.78125 -1.875 L 2.703125 -2.515625 L 8.96875 -10.765625 L 12.34375 -14.671875 Z M 15.734375 -19.5625 "/></g></g></g><g fill="#f9b144" fill-opacity="1"><g transform="translate(169.304965, 272.960493)"><g/></g></g><g fill="#f9b144" fill-opacity="1"><g transform="translate(178.776458, 272.960493)"><g><path d="M 1.578125 0 L 1.46875 -1.875 L 3.671875 -2.484375 C 3.753906 -2.578125 3.804688 -2.875 3.828125 -3.375 C 3.847656 -3.875 3.867188 -4.53125 3.890625 -5.34375 C 3.921875 -6.15625 3.9375 -7.066406 3.9375 -8.078125 L 3.984375 -14.109375 C 3.984375 -15.066406 3.96875 -15.941406 3.9375 -16.734375 C 3.914062 -17.535156 3.890625 -18.195312 3.859375 -18.71875 C 3.835938 -19.25 3.789062 -19.566406 3.71875 -19.671875 L 1.34375 -20.15625 L 1.46875 -22.03125 L 11 -22.03125 C 14.070312 -22.03125 16.363281 -21.472656 17.875 -20.359375 C 19.394531 -19.242188 20.15625 -17.648438 20.15625 -15.578125 C 20.15625 -14.203125 19.789062 -12.960938 19.0625 -11.859375 C 18.34375 -10.753906 17.300781 -9.882812 15.9375 -9.25 C 14.570312 -8.613281 12.925781 -8.296875 11 -8.296875 C 10.570312 -8.296875 10.144531 -8.320312 9.71875 -8.375 C 9.289062 -8.425781 8.890625 -8.488281 8.515625 -8.5625 L 8.515625 -11.140625 C 8.796875 -11.015625 9.144531 -10.910156 9.5625 -10.828125 C 9.988281 -10.742188 10.46875 -10.703125 11 -10.703125 C 12.195312 -10.703125 13.117188 -11.078125 13.765625 -11.828125 C 14.421875 -12.578125 14.75 -13.664062 14.75 -15.09375 C 14.75 -16.769531 14.335938 -17.992188 13.515625 -18.765625 C 12.691406 -19.546875 11.566406 -19.9375 10.140625 -19.9375 L 9.078125 -19.9375 C 9.078125 -19.726562 9.070312 -19.382812 9.0625 -18.90625 C 9.050781 -18.4375 9.039062 -17.804688 9.03125 -17.015625 C 9.019531 -16.234375 9.015625 -15.265625 9.015625 -14.109375 L 9.046875 -8.078125 C 9.046875 -7.066406 9.0625 -6.15625 9.09375 -5.34375 C 9.132812 -4.53125 9.171875 -3.878906 9.203125 -3.390625 C 9.242188 -2.910156 9.28125 -2.617188 9.3125 -2.515625 L 12.34375 -1.953125 L 12.234375 0 Z M 1.578125 0 "/></g></g></g><g fill="#f9b144" fill-opacity="1"><g transform="translate(202.212642, 272.960493)"><g><path d="M 19.8125 -19.5625 L 11.859375 -6.875 L 13.46875 -10.625 L 13.46875 -6.875 C 13.46875 -6.414062 13.472656 -5.941406 13.484375 -5.453125 C 13.503906 -4.972656 13.519531 -4.523438 13.53125 -4.109375 C 13.539062 -3.691406 13.5625 -3.332031 13.59375 -3.03125 C 13.632812 -2.738281 13.671875 -2.554688 13.703125 -2.484375 L 16.328125 -1.921875 L 16.21875 0 L 5.75 0 L 5.625 -1.921875 L 8.265625 -2.484375 C 8.285156 -2.554688 8.304688 -2.738281 8.328125 -3.03125 C 8.359375 -3.332031 8.382812 -3.691406 8.40625 -4.109375 C 8.4375 -4.523438 8.453125 -4.972656 8.453125 -5.453125 C 8.453125 -5.941406 8.453125 -6.414062 8.453125 -6.875 L 8.453125 -10.625 L 9.6875 -6.875 L 2.171875 -19.5625 L 0.265625 -20.15625 L 0.375 -22.03125 L 10.28125 -22.03125 L 10.390625 -20.15625 L 8.03125 -19.5625 L 12.796875 -11.34375 L 11.90625 -11.34375 L 16.671875 -19.5625 L 14.03125 -20.15625 L 14.15625 -22.03125 L 21.625 -22.03125 L 21.734375 -20.15625 Z M 19.8125 -19.5625 "/></g></g></g><g fill="#f9b144" fill-opacity="1"><g transform="translate(226.286997, 272.960493)"><g><path d="M 21.515625 -22.21875 L 22.375 -15.578125 L 20.046875 -15.390625 L 18.546875 -19.703125 C 18.296875 -19.753906 18.03125 -19.785156 17.75 -19.796875 C 17.476562 -19.804688 17.179688 -19.8125 16.859375 -19.8125 L 15.578125 -19.8125 C 15.347656 -19.8125 15.085938 -19.8125 14.796875 -19.8125 C 14.515625 -19.8125 14.300781 -19.789062 14.15625 -19.75 C 14.15625 -19.59375 14.144531 -19.125 14.125 -18.34375 C 14.113281 -17.570312 14.101562 -16.648438 14.09375 -15.578125 C 14.082031 -14.503906 14.078125 -13.414062 14.078125 -12.3125 L 14.078125 -8.828125 C 14.078125 -7.421875 14.085938 -6.15625 14.109375 -5.03125 C 14.140625 -3.90625 14.164062 -3.054688 14.1875 -2.484375 L 17.453125 -1.953125 L 17.34375 0 L 5.671875 0 L 5.5625 -1.953125 L 8.828125 -2.484375 C 8.847656 -3.054688 8.867188 -3.90625 8.890625 -5.03125 C 8.921875 -6.15625 8.9375 -7.421875 8.9375 -8.828125 L 8.9375 -12.3125 C 8.9375 -13.414062 8.925781 -14.503906 8.90625 -15.578125 C 8.894531 -16.648438 8.890625 -17.570312 8.890625 -18.34375 C 8.890625 -19.125 8.878906 -19.59375 8.859375 -19.75 C 8.710938 -19.789062 8.492188 -19.8125 8.203125 -19.8125 C 7.910156 -19.8125 7.65625 -19.8125 7.4375 -19.8125 L 6.125 -19.8125 C 5.820312 -19.8125 5.515625 -19.804688 5.203125 -19.796875 C 4.890625 -19.785156 4.609375 -19.753906 4.359375 -19.703125 L 2.921875 -15.3125 L 0.59375 -15.546875 L 1.390625 -22.21875 C 1.640625 -22.21875 1.992188 -22.203125 2.453125 -22.171875 C 2.921875 -22.148438 3.410156 -22.128906 3.921875 -22.109375 C 4.429688 -22.085938 4.929688 -22.066406 5.421875 -22.046875 C 5.910156 -22.035156 6.332031 -22.03125 6.6875 -22.03125 L 16.21875 -22.03125 C 16.5625 -22.03125 16.972656 -22.035156 17.453125 -22.046875 C 17.929688 -22.066406 18.429688 -22.085938 18.953125 -22.109375 C 19.484375 -22.128906 19.972656 -22.148438 20.421875 -22.171875 C 20.867188 -22.203125 21.234375 -22.21875 21.515625 -22.21875 Z M 21.515625 -22.21875 "/></g></g></g><g fill="#f9b144" fill-opacity="1"><g transform="translate(251.374931, 272.960493)"><g><path d="M 14.859375 0 L 14.75 -1.875 L 17.078125 -2.484375 C 17.128906 -2.628906 17.171875 -2.96875 17.203125 -3.5 C 17.242188 -4.039062 17.273438 -4.722656 17.296875 -5.546875 C 17.328125 -6.378906 17.34375 -7.285156 17.34375 -8.265625 L 17.34375 -13.734375 C 17.34375 -14.765625 17.328125 -15.695312 17.296875 -16.53125 C 17.273438 -17.375 17.242188 -18.0625 17.203125 -18.59375 C 17.171875 -19.132812 17.128906 -19.457031 17.078125 -19.5625 L 14.75 -20.15625 L 14.859375 -22.03125 L 24.96875 -22.03125 L 25.078125 -20.15625 L 22.703125 -19.5625 C 22.660156 -19.457031 22.617188 -19.109375 22.578125 -18.515625 C 22.535156 -17.929688 22.492188 -17.210938 22.453125 -16.359375 C 22.421875 -15.515625 22.40625 -14.640625 22.40625 -13.734375 L 22.40625 -8.265625 C 22.40625 -7.410156 22.421875 -6.554688 22.453125 -5.703125 C 22.492188 -4.847656 22.535156 -4.132812 22.578125 -3.5625 C 22.617188 -2.988281 22.660156 -2.628906 22.703125 -2.484375 L 25.078125 -1.875 L 24.96875 0 Z M 1.421875 0 L 1.3125 -1.875 L 3.671875 -2.484375 C 3.722656 -2.609375 3.765625 -2.929688 3.796875 -3.453125 C 3.835938 -3.972656 3.867188 -4.648438 3.890625 -5.484375 C 3.921875 -6.328125 3.9375 -7.253906 3.9375 -8.265625 L 3.9375 -13.734375 C 3.9375 -14.785156 3.921875 -15.726562 3.890625 -16.5625 C 3.867188 -17.40625 3.835938 -18.09375 3.796875 -18.625 C 3.765625 -19.164062 3.722656 -19.476562 3.671875 -19.5625 L 1.3125 -20.15625 L 1.421875 -22.03125 L 11.453125 -22.03125 L 11.5625 -20.15625 L 9.234375 -19.5625 C 9.179688 -19.457031 9.132812 -19.132812 9.09375 -18.59375 C 9.0625 -18.0625 9.039062 -17.375 9.03125 -16.53125 C 9.019531 -15.695312 9.015625 -14.765625 9.015625 -13.734375 L 9.015625 -8.265625 C 9.015625 -7.285156 9.019531 -6.378906 9.03125 -5.546875 C 9.039062 -4.722656 9.0625 -4.039062 9.09375 -3.5 C 9.132812 -2.96875 9.179688 -2.628906 9.234375 -2.484375 L 11.5625 -1.875 L 11.453125 0 Z M 8.1875 -9.828125 L 8.1875 -12.6875 C 8.78125 -12.613281 9.460938 -12.5625 10.234375 -12.53125 C 11.015625 -12.507812 11.992188 -12.5 13.171875 -12.5 C 14.347656 -12.5 15.320312 -12.507812 16.09375 -12.53125 C 16.875 -12.5625 17.566406 -12.613281 18.171875 -12.6875 L 18.171875 -9.828125 C 17.640625 -9.859375 16.984375 -9.890625 16.203125 -9.921875 C 15.429688 -9.960938 14.421875 -9.984375 13.171875 -9.984375 C 11.921875 -9.984375 10.90625 -9.960938 10.125 -9.921875 C 9.351562 -9.890625 8.707031 -9.859375 8.1875 -9.828125 Z M 8.1875 -9.828125 "/></g></g></g><g fill="#f9b144" fill-opacity="1"><g transform="translate(279.841407, 272.960493)"><g><path d="M 13.515625 0.34375 C 11.210938 0.34375 9.164062 -0.128906 7.375 -1.078125 C 5.582031 -2.035156 4.179688 -3.34375 3.171875 -5 C 2.160156 -6.664062 1.65625 -8.578125 1.65625 -10.734375 C 1.65625 -12.984375 2.160156 -14.984375 3.171875 -16.734375 C 4.179688 -18.492188 5.585938 -19.875 7.390625 -20.875 C 9.191406 -21.875 11.242188 -22.375 13.546875 -22.375 C 15.773438 -22.375 17.738281 -21.90625 19.4375 -20.96875 C 21.144531 -20.03125 22.484375 -18.734375 23.453125 -17.078125 C 24.429688 -15.429688 24.921875 -13.503906 24.921875 -11.296875 C 24.921875 -9.367188 24.5625 -7.675781 23.84375 -6.21875 C 23.132812 -4.769531 22.210938 -3.554688 21.078125 -2.578125 C 19.941406 -1.609375 18.707031 -0.878906 17.375 -0.390625 C 16.050781 0.0976562 14.765625 0.34375 13.515625 0.34375 Z M 13.8125 -2.484375 C 14.96875 -2.484375 15.929688 -2.785156 16.703125 -3.390625 C 17.484375 -4.003906 18.066406 -4.898438 18.453125 -6.078125 C 18.835938 -7.253906 19.03125 -8.679688 19.03125 -10.359375 C 19.03125 -12.285156 18.78125 -13.960938 18.28125 -15.390625 C 17.78125 -16.816406 17.09375 -17.921875 16.21875 -18.703125 C 15.34375 -19.492188 14.300781 -19.890625 13.09375 -19.890625 C 11.375 -19.890625 10.023438 -19.175781 9.046875 -17.75 C 8.066406 -16.320312 7.578125 -14.347656 7.578125 -11.828125 C 7.578125 -9.972656 7.847656 -8.34375 8.390625 -6.9375 C 8.929688 -5.539062 9.660156 -4.445312 10.578125 -3.65625 C 11.503906 -2.875 12.582031 -2.484375 13.8125 -2.484375 Z M 13.8125 -2.484375 "/></g></g></g><g fill="#f9b144" fill-opacity="1"><g transform="translate(308.49558, 272.960493)"><g><path d="M 19.484375 -6.9375 L 19.484375 -12.6875 C 19.484375 -13.914062 19.472656 -15.019531 19.453125 -16 C 19.441406 -16.988281 19.414062 -17.796875 19.375 -18.421875 C 19.34375 -19.054688 19.300781 -19.4375 19.25 -19.5625 L 16.625 -20.15625 L 16.734375 -22.03125 L 24.734375 -22.03125 L 24.84375 -20.15625 L 22.453125 -19.5625 C 22.421875 -19.4375 22.382812 -19.066406 22.34375 -18.453125 C 22.3125 -17.835938 22.28125 -17.03125 22.25 -16.03125 C 22.226562 -15.03125 22.21875 -13.914062 22.21875 -12.6875 L 22.21875 -5.5625 C 22.21875 -4.382812 22.21875 -3.347656 22.21875 -2.453125 C 22.21875 -1.566406 22.21875 -0.6875 22.21875 0.1875 L 19.9375 0.1875 L 4.84375 -17.265625 L 6.828125 -17.265625 L 6.828125 -9.796875 C 6.828125 -8.441406 6.835938 -7.242188 6.859375 -6.203125 C 6.890625 -5.171875 6.921875 -4.332031 6.953125 -3.6875 C 6.992188 -3.050781 7.050781 -2.648438 7.125 -2.484375 L 9.71875 -1.875 L 9.609375 0 L 1.5 0 L 1.390625 -1.875 L 3.75 -2.484375 C 3.800781 -2.648438 3.84375 -3.066406 3.875 -3.734375 C 3.914062 -4.398438 3.945312 -5.265625 3.96875 -6.328125 C 4 -7.390625 4.015625 -8.546875 4.015625 -9.796875 L 4.015625 -14.796875 C 4.015625 -15.460938 3.992188 -16.132812 3.953125 -16.8125 C 3.921875 -17.488281 3.882812 -18.078125 3.84375 -18.578125 C 3.8125 -19.078125 3.78125 -19.40625 3.75 -19.5625 L 1.390625 -20.15625 L 1.5 -22.03125 L 7.4375 -22.03125 L 21.015625 -6.9375 Z M 19.484375 -6.9375 "/></g></g></g><g fill="#f9b144" fill-opacity="1"><g transform="translate(147.734941, 303.335224)"><g><path d="M 9.09375 -3.609375 L 9.09375 -5.5 C 9.09375 -5.976562 9.085938 -6.457031 9.078125 -6.9375 C 9.078125 -7.414062 9.066406 -7.828125 9.046875 -8.171875 C 9.035156 -8.515625 9.015625 -8.710938 8.984375 -8.765625 L 7.765625 -9.09375 L 7.8125 -10.078125 L 11.71875 -10.078125 L 11.78125 -9.09375 L 10.65625 -8.765625 C 10.632812 -8.710938 10.613281 -8.515625 10.59375 -8.171875 C 10.570312 -7.835938 10.554688 -7.429688 10.546875 -6.953125 C 10.546875 -6.472656 10.546875 -5.988281 10.546875 -5.5 L 10.546875 -2.734375 C 10.546875 -2.097656 10.539062 -1.566406 10.53125 -1.140625 C 10.519531 -0.710938 10.515625 -0.296875 10.515625 0.109375 L 9.296875 0.109375 L 2.03125 -7.59375 L 3.296875 -7.59375 L 3.296875 -4.90625 C 3.296875 -4.332031 3.296875 -3.785156 3.296875 -3.265625 C 3.304688 -2.742188 3.320312 -2.304688 3.34375 -1.953125 C 3.363281 -1.597656 3.394531 -1.378906 3.4375 -1.296875 L 4.65625 -0.984375 L 4.59375 0 L 0.59375 0 L 0.546875 -0.984375 L 1.671875 -1.296875 C 1.691406 -1.378906 1.707031 -1.609375 1.71875 -1.984375 C 1.738281 -2.367188 1.753906 -2.820312 1.765625 -3.34375 C 1.773438 -3.875 1.78125 -4.394531 1.78125 -4.90625 L 1.78125 -6.765625 C 1.78125 -6.898438 1.769531 -7.109375 1.75 -7.390625 C 1.738281 -7.671875 1.722656 -7.945312 1.703125 -8.21875 C 1.691406 -8.5 1.679688 -8.679688 1.671875 -8.765625 L 0.546875 -9.09375 L 0.59375 -10.078125 L 3.546875 -10.078125 L 10.046875 -3.609375 Z M 9.09375 -3.609375 "/></g></g></g><g fill="#f9b144" fill-opacity="1"><g transform="translate(166.049445, 303.335224)"><g><path d="M 6.34375 0.15625 C 5.257812 0.15625 4.289062 -0.0625 3.4375 -0.5 C 2.582031 -0.9375 1.910156 -1.53125 1.421875 -2.28125 C 0.941406 -3.039062 0.703125 -3.898438 0.703125 -4.859375 C 0.703125 -5.898438 0.941406 -6.820312 1.421875 -7.625 C 1.898438 -8.4375 2.566406 -9.070312 3.421875 -9.53125 C 4.273438 -10 5.242188 -10.234375 6.328125 -10.234375 C 7.398438 -10.234375 8.34375 -10.019531 9.15625 -9.59375 C 9.96875 -9.164062 10.597656 -8.570312 11.046875 -7.8125 C 11.503906 -7.0625 11.734375 -6.195312 11.734375 -5.21875 C 11.734375 -4.257812 11.550781 -3.4375 11.1875 -2.75 C 10.832031 -2.070312 10.375 -1.519531 9.8125 -1.09375 C 9.257812 -0.664062 8.671875 -0.347656 8.046875 -0.140625 C 7.429688 0.0546875 6.863281 0.15625 6.34375 0.15625 Z M 6.453125 -1.34375 C 6.921875 -1.34375 7.300781 -1.46875 7.59375 -1.71875 C 7.882812 -1.976562 8.097656 -2.363281 8.234375 -2.875 C 8.378906 -3.382812 8.453125 -4.007812 8.453125 -4.75 C 8.453125 -5.613281 8.351562 -6.351562 8.15625 -6.96875 C 7.96875 -7.582031 7.703125 -8.054688 7.359375 -8.390625 C 7.015625 -8.734375 6.601562 -8.90625 6.125 -8.90625 C 5.476562 -8.90625 4.960938 -8.601562 4.578125 -8 C 4.203125 -7.40625 4.015625 -6.5625 4.015625 -5.46875 C 4.015625 -4.65625 4.117188 -3.9375 4.328125 -3.3125 C 4.535156 -2.695312 4.820312 -2.210938 5.1875 -1.859375 C 5.550781 -1.515625 5.972656 -1.34375 6.453125 -1.34375 Z M 6.453125 -1.34375 "/></g></g></g><g fill="#f9b144" fill-opacity="1"><g transform="translate(184.484073, 303.335224)"><g><path d="M 10.453125 -10.171875 L 10.859375 -6.953125 L 9.609375 -6.859375 L 8.9375 -8.890625 C 8.84375 -8.910156 8.722656 -8.921875 8.578125 -8.921875 C 8.429688 -8.929688 8.257812 -8.9375 8.0625 -8.9375 L 7.53125 -8.9375 C 7.445312 -8.9375 7.359375 -8.929688 7.265625 -8.921875 C 7.171875 -8.921875 7.113281 -8.914062 7.09375 -8.90625 C 7.09375 -8.84375 7.085938 -8.625 7.078125 -8.25 C 7.066406 -7.882812 7.054688 -7.441406 7.046875 -6.921875 C 7.035156 -6.398438 7.03125 -5.859375 7.03125 -5.296875 L 7.03125 -4.15625 C 7.03125 -3.570312 7.039062 -3.023438 7.0625 -2.515625 C 7.082031 -2.015625 7.097656 -1.609375 7.109375 -1.296875 L 8.640625 -1.015625 L 8.578125 0 L 2.609375 0 L 2.5625 -1.015625 L 4.078125 -1.296875 C 4.109375 -1.609375 4.128906 -2.015625 4.140625 -2.515625 C 4.148438 -3.023438 4.15625 -3.570312 4.15625 -4.15625 L 4.15625 -5.296875 C 4.15625 -5.859375 4.148438 -6.398438 4.140625 -6.921875 C 4.140625 -7.441406 4.132812 -7.882812 4.125 -8.25 C 4.125 -8.625 4.117188 -8.84375 4.109375 -8.90625 C 4.078125 -8.914062 4.015625 -8.921875 3.921875 -8.921875 C 3.835938 -8.929688 3.75 -8.9375 3.65625 -8.9375 L 3.109375 -8.9375 C 2.921875 -8.9375 2.738281 -8.929688 2.5625 -8.921875 C 2.394531 -8.921875 2.257812 -8.910156 2.15625 -8.890625 L 1.5625 -6.828125 L 0.3125 -6.9375 L 0.65625 -10.171875 C 0.769531 -10.171875 0.953125 -10.164062 1.203125 -10.15625 C 1.453125 -10.144531 1.722656 -10.132812 2.015625 -10.125 C 2.316406 -10.113281 2.601562 -10.101562 2.875 -10.09375 C 3.15625 -10.082031 3.378906 -10.078125 3.546875 -10.078125 L 7.5625 -10.078125 C 7.738281 -10.078125 7.960938 -10.082031 8.234375 -10.09375 C 8.515625 -10.101562 8.800781 -10.113281 9.09375 -10.125 C 9.394531 -10.132812 9.664062 -10.144531 9.90625 -10.15625 C 10.15625 -10.164062 10.335938 -10.171875 10.453125 -10.171875 Z M 10.453125 -10.171875 "/></g></g></g><g fill="#f9b144" fill-opacity="1"><g transform="translate(201.665977, 303.335224)"><g><path d="M 9.34375 0.125 C 8.988281 0.09375 8.53125 0.0625 7.96875 0.03125 C 7.414062 0.0078125 6.921875 0 6.484375 0 L 0.5625 0 L 0.515625 -0.984375 L 1.625 -1.296875 C 1.65625 -1.347656 1.679688 -1.503906 1.703125 -1.765625 C 1.722656 -2.023438 1.738281 -2.351562 1.75 -2.75 C 1.757812 -3.15625 1.765625 -3.578125 1.765625 -4.015625 L 1.765625 -6.078125 C 1.765625 -6.523438 1.757812 -6.945312 1.75 -7.34375 C 1.738281 -7.75 1.722656 -8.078125 1.703125 -8.328125 C 1.679688 -8.585938 1.65625 -8.734375 1.625 -8.765625 L 0.515625 -9.09375 L 0.5625 -10.078125 L 5.6875 -10.078125 C 5.96875 -10.078125 6.3125 -10.078125 6.71875 -10.078125 C 7.125 -10.085938 7.519531 -10.097656 7.90625 -10.109375 C 8.300781 -10.128906 8.617188 -10.148438 8.859375 -10.171875 L 9.390625 -7.453125 L 8.25 -7.296875 L 7.5625 -8.875 C 7.382812 -8.90625 7.234375 -8.925781 7.109375 -8.9375 C 6.984375 -8.945312 6.851562 -8.953125 6.71875 -8.953125 L 5.8125 -8.953125 C 5.601562 -8.953125 5.382812 -8.945312 5.15625 -8.9375 C 4.9375 -8.9375 4.773438 -8.925781 4.671875 -8.90625 C 4.660156 -8.789062 4.648438 -8.644531 4.640625 -8.46875 C 4.640625 -8.300781 4.632812 -8.070312 4.625 -7.78125 C 4.625 -7.5 4.625 -7.132812 4.625 -6.6875 L 4.625 -3.71875 C 4.625 -3.257812 4.625 -2.875 4.625 -2.5625 C 4.632812 -2.25 4.640625 -1.992188 4.640625 -1.796875 C 4.648438 -1.597656 4.660156 -1.429688 4.671875 -1.296875 C 4.898438 -1.265625 5.140625 -1.242188 5.390625 -1.234375 C 5.648438 -1.222656 5.992188 -1.21875 6.421875 -1.21875 L 6.859375 -1.21875 C 7.179688 -1.21875 7.40625 -1.21875 7.53125 -1.21875 C 7.664062 -1.21875 7.765625 -1.222656 7.828125 -1.234375 C 7.898438 -1.242188 7.984375 -1.257812 8.078125 -1.28125 L 9.0625 -3.0625 L 10.15625 -2.84375 Z M 6.984375 -3.359375 L 6.828125 -4.515625 C 6.753906 -4.515625 6.613281 -4.515625 6.40625 -4.515625 C 6.207031 -4.523438 5.988281 -4.53125 5.75 -4.53125 L 5.078125 -4.53125 C 4.847656 -4.53125 4.644531 -4.523438 4.46875 -4.515625 C 4.300781 -4.503906 4.203125 -4.492188 4.171875 -4.484375 L 4.171875 -5.875 C 4.203125 -5.863281 4.300781 -5.847656 4.46875 -5.828125 C 4.644531 -5.804688 4.847656 -5.796875 5.078125 -5.796875 L 5.75 -5.796875 C 5.988281 -5.796875 6.207031 -5.796875 6.40625 -5.796875 C 6.613281 -5.804688 6.753906 -5.8125 6.828125 -5.8125 L 6.984375 -6.9375 L 8.078125 -6.9375 L 8.078125 -3.359375 Z M 6.984375 -3.359375 "/></g></g></g><g fill="#f9b144" fill-opacity="1"><g transform="translate(217.95554, 303.335224)"><g><path d="M 4.203125 0.15625 C 3.722656 0.15625 3.179688 0.0820312 2.578125 -0.0625 C 1.972656 -0.21875 1.4375 -0.421875 0.96875 -0.671875 L 0.890625 -3.40625 L 2.234375 -3.46875 L 2.859375 -1.546875 C 3.046875 -1.429688 3.285156 -1.332031 3.578125 -1.25 C 3.867188 -1.175781 4.144531 -1.140625 4.40625 -1.140625 C 4.875 -1.140625 5.222656 -1.226562 5.453125 -1.40625 C 5.691406 -1.582031 5.8125 -1.828125 5.8125 -2.140625 C 5.8125 -2.523438 5.691406 -2.832031 5.453125 -3.0625 C 5.222656 -3.289062 4.921875 -3.476562 4.546875 -3.625 C 4.179688 -3.769531 3.785156 -3.914062 3.359375 -4.0625 C 2.941406 -4.21875 2.546875 -4.410156 2.171875 -4.640625 C 1.796875 -4.867188 1.488281 -5.164062 1.25 -5.53125 C 1.019531 -5.90625 0.90625 -6.394531 0.90625 -7 C 0.90625 -7.65625 1.09375 -8.226562 1.46875 -8.71875 C 1.851562 -9.207031 2.390625 -9.585938 3.078125 -9.859375 C 3.765625 -10.140625 4.570312 -10.28125 5.5 -10.28125 C 5.738281 -10.28125 6.015625 -10.253906 6.328125 -10.203125 C 6.648438 -10.160156 6.960938 -10.101562 7.265625 -10.03125 C 7.578125 -9.957031 7.84375 -9.867188 8.0625 -9.765625 L 8.328125 -7.03125 L 7.015625 -6.96875 L 6.421875 -8.8125 C 6.097656 -8.945312 5.734375 -9.015625 5.328125 -9.015625 C 4.941406 -9.015625 4.601562 -8.910156 4.3125 -8.703125 C 4.03125 -8.503906 3.890625 -8.203125 3.890625 -7.796875 C 3.890625 -7.441406 4.007812 -7.15625 4.25 -6.9375 C 4.5 -6.71875 4.8125 -6.523438 5.1875 -6.359375 C 5.5625 -6.203125 5.960938 -6.039062 6.390625 -5.875 C 6.816406 -5.71875 7.21875 -5.523438 7.59375 -5.296875 C 7.976562 -5.078125 8.289062 -4.785156 8.53125 -4.421875 C 8.769531 -4.054688 8.890625 -3.59375 8.890625 -3.03125 C 8.890625 -2.414062 8.691406 -1.867188 8.296875 -1.390625 C 7.910156 -0.910156 7.367188 -0.53125 6.671875 -0.25 C 5.972656 0.0195312 5.148438 0.15625 4.203125 0.15625 Z M 4.203125 0.15625 "/></g></g></g></svg>